<svg width="713" height="456" viewBox="0 0 713 456" fill="none" xmlns="http://www.w3.org/2000/svg">
<path fill-rule="evenodd" clip-rule="evenodd" d="M28.6484 156.281C64.3545 111.896 137.173 124.725 186.08 95.5194C223.755 73.0216 238.928 20.5399 280.326 5.9885C321.844 -8.60531 366.949 8.88332 410.254 16.7227C453.02 24.4644 496.408 30.2817 534.095 51.9279C573.339 74.4685 603.444 108.498 631.653 143.888C663.196 183.46 713.94 221.585 709.514 271.996C704.881 324.762 638.583 348.682 609.77 393.129C586.857 428.473 574.739 419.53 550 453.62C509.5 457 574 453.62 523 453.62C461.5 453.62 419 453.62 365 453.62C313 453.62 211.5 453.62 211.5 453.62C211.5 453.62 185.318 453.62 131.5 453.62C79.2621 453.62 17.9294 366.829 9.26121 315.316C0.287004 261.983 -5.2511 198.42 28.6484 156.281Z" fill="#FFE1F0"/>
<g style="mix-blend-mode:multiply">
<g style="mix-blend-mode:multiply">
<path d="M219.116 58.6033C219.116 58.6033 219.193 64.5361 219.324 74.9049C219.455 85.2738 219.564 100.1 219.728 117.888C219.892 135.676 220.023 156.413 220.067 178.648C220.111 200.882 220.154 224.592 220.209 248.301C220.263 272.011 220.111 295.731 220.067 317.966C220.023 340.2 219.816 360.938 219.728 378.726C219.641 396.513 219.466 411.362 219.335 421.709C219.204 432.056 219.116 438.01 219.116 438.01C219.116 438.01 219.04 432.078 218.898 421.709C218.756 411.34 218.668 396.513 218.504 378.726C218.34 360.938 218.209 340.189 218.166 317.966C218.122 295.742 218.078 272.076 218.024 248.301C217.969 224.526 218.122 200.882 218.166 178.648C218.209 156.413 218.417 135.665 218.504 117.888C218.592 100.111 218.81 85.2847 218.909 74.9049C219.007 64.5252 219.116 58.6033 219.116 58.6033Z" fill="#BABABA"/>
</g>
<g style="mix-blend-mode:multiply">
<path d="M266.546 58.6033C266.546 58.6033 266.623 64.5361 266.754 74.9049C266.885 85.2738 266.983 100.1 267.158 117.888C267.333 135.676 267.442 156.413 267.486 178.648C267.53 200.882 267.584 224.592 267.639 248.301C267.693 272.011 267.53 295.731 267.486 317.966C267.442 340.2 267.246 360.938 267.158 378.726C267.071 396.513 266.852 411.329 266.754 421.709C266.655 432.088 266.546 438.01 266.546 438.01C266.546 438.01 266.47 432.078 266.328 421.709C266.186 411.34 266.098 396.513 265.923 378.726C265.749 360.938 265.628 340.189 265.596 317.966C265.563 295.742 265.497 272.076 265.454 248.301C265.41 224.526 265.552 200.882 265.596 178.648C265.639 156.413 265.836 135.665 265.934 117.888C266.033 100.111 266.229 85.2847 266.328 74.9049C266.426 64.5252 266.546 58.6033 266.546 58.6033Z" fill="#BABABA"/>
</g>
<g style="mix-blend-mode:multiply">
<path d="M313.965 58.6033C313.965 58.6033 314.042 64.5361 314.184 74.9049C314.326 85.2738 314.413 100.1 314.577 117.888C314.741 135.676 314.872 156.413 314.916 178.648C314.96 200.882 315.014 224.592 315.058 248.301C315.102 272.011 314.96 295.731 314.916 317.966C314.872 340.2 314.675 360.938 314.577 378.726C314.479 396.513 314.282 411.329 314.184 421.709C314.085 432.088 313.965 438.01 313.965 438.01C313.965 438.01 313.889 432.078 313.758 421.709C313.627 411.34 313.517 396.513 313.353 378.726C313.19 360.938 313.058 340.189 313.015 317.966C312.971 295.742 312.927 272.076 312.873 248.301C312.818 224.526 312.971 200.882 313.026 178.648C313.08 156.413 313.266 135.665 313.353 117.888C313.441 100.111 313.659 85.2847 313.758 74.9049C313.856 64.5252 313.965 58.6033 313.965 58.6033Z" fill="#BABABA"/>
</g>
<g style="mix-blend-mode:multiply">
<path d="M361.395 58.6033C361.395 58.6033 361.472 64.5361 361.603 74.9049C361.734 85.2738 361.843 100.1 362.007 117.888C362.171 135.676 362.291 156.413 362.335 178.648C362.379 200.882 362.433 224.592 362.488 248.301C362.542 272.011 362.39 295.731 362.346 317.966C362.302 340.2 362.095 360.938 362.007 378.726C361.92 396.513 361.701 411.329 361.603 421.709C361.505 432.088 361.395 438.01 361.395 438.01C361.395 438.01 361.319 432.078 361.177 421.709C361.035 411.34 360.947 396.513 360.772 378.726C360.598 360.938 360.477 340.189 360.445 317.966C360.412 295.742 360.346 272.076 360.303 248.301C360.259 224.526 360.401 200.882 360.445 178.648C360.488 156.413 360.685 135.665 360.783 117.888C360.882 100.111 361.089 85.2847 361.177 74.9049C361.264 64.5252 361.395 58.6033 361.395 58.6033Z" fill="#BABABA"/>
</g>
<g style="mix-blend-mode:multiply">
<path d="M408.814 58.6033C408.814 58.6033 408.891 64.5361 409.033 74.9049C409.175 85.2738 409.262 100.1 409.426 117.888C409.59 135.676 409.721 156.413 409.765 178.648C409.809 200.882 409.863 224.592 409.907 248.301C409.951 272.011 409.809 295.731 409.765 317.966C409.721 340.2 409.525 360.938 409.437 378.726C409.35 396.513 409.131 411.329 409.033 421.709C408.935 432.088 408.814 438.01 408.814 438.01C408.814 438.01 408.738 432.078 408.607 421.709C408.476 411.34 408.366 396.513 408.202 378.726C408.039 360.938 407.907 340.189 407.875 317.966C407.842 295.742 407.776 272.076 407.722 248.301C407.667 224.526 407.82 200.882 407.875 178.648C407.929 156.413 408.115 135.665 408.202 117.888C408.29 100.111 408.508 85.2847 408.607 74.9049C408.705 64.5252 408.814 58.6033 408.814 58.6033Z" fill="#BABABA"/>
</g>
<g style="mix-blend-mode:multiply">
<path d="M456.244 58.6033C456.244 58.6033 456.321 64.5361 456.452 74.9049C456.583 85.2738 456.692 100.1 456.856 117.888C457.02 135.676 457.151 156.413 457.195 178.648C457.239 200.882 457.282 224.592 457.337 248.301C457.392 272.011 457.239 295.731 457.195 317.955C457.151 340.179 456.944 360.938 456.856 378.726C456.769 396.513 456.561 411.362 456.452 421.698C456.343 432.034 456.244 437.999 456.244 437.999C456.244 437.999 456.168 432.078 456.026 421.698C455.884 411.318 455.796 396.502 455.632 378.726C455.469 360.949 455.337 340.189 455.294 317.955C455.25 295.72 455.206 272.066 455.152 248.301C455.097 224.537 455.25 200.882 455.294 178.648C455.337 156.413 455.545 135.665 455.632 117.888C455.72 100.111 455.938 85.2847 456.037 74.9049C456.135 64.5252 456.244 58.6033 456.244 58.6033Z" fill="#BABABA"/>
</g>
<g style="mix-blend-mode:multiply">
<path d="M503.663 58.6033C503.663 58.6033 503.74 64.5361 503.882 74.9049C504.024 85.2738 504.111 100.1 504.275 117.888C504.439 135.676 504.57 156.413 504.614 178.648C504.658 200.882 504.712 224.592 504.756 248.301C504.8 272.011 504.658 295.731 504.614 317.955C504.57 340.179 504.373 360.938 504.286 378.726C504.199 396.513 503.98 411.329 503.882 421.698C503.783 432.067 503.663 437.999 503.663 437.999C503.663 437.999 503.587 432.078 503.456 421.698C503.325 411.318 503.215 396.502 503.051 378.726C502.888 360.949 502.756 340.189 502.724 317.955C502.691 295.72 502.625 272.066 502.582 248.301C502.538 224.537 502.68 200.882 502.724 178.648C502.767 156.413 502.964 135.665 503.051 117.888C503.139 100.111 503.357 85.2847 503.456 74.9049C503.554 64.5252 503.663 58.6033 503.663 58.6033Z" fill="#BABABA"/>
</g>
<g style="mix-blend-mode:multiply">
<path d="M551.093 58.6033C551.093 58.6033 551.17 64.5361 551.301 74.9049C551.432 85.2738 551.541 100.1 551.705 117.888C551.869 135.676 552 156.413 552.044 178.648C552.088 200.882 552.131 224.592 552.186 248.301C552.241 272.011 552.088 295.731 552.044 317.955C552 340.179 551.793 360.938 551.705 378.726C551.618 396.513 551.399 411.329 551.301 421.698C551.203 432.067 551.093 437.999 551.093 437.999C551.093 437.999 551.017 432.078 550.886 421.698C550.755 411.318 550.645 396.502 550.481 378.726C550.318 360.949 550.186 340.189 550.143 317.955C550.099 295.72 550.055 272.066 550.001 248.301C549.946 224.537 550.099 200.882 550.143 178.648C550.186 156.413 550.394 135.665 550.481 117.888C550.569 100.111 550.787 85.2847 550.886 74.9049C550.984 64.5252 551.093 58.6033 551.093 58.6033Z" fill="#BABABA"/>
</g>
<g style="mix-blend-mode:multiply">
<path d="M574.803 82.3128L558.501 82.4876L515.562 82.9247C497.774 83.023 477.026 83.2197 454.791 83.2634L385.138 83.4054L315.484 83.2634C293.249 83.2634 272.501 83.023 254.713 82.9356L211.708 82.4876L195.429 82.3128L211.73 82.1052L254.702 81.701C272.49 81.6136 293.239 81.406 315.473 81.3732L385.127 81.2202L454.78 81.3732C477.015 81.3732 497.763 81.6136 515.551 81.701L558.523 82.1052L574.803 82.3128Z" fill="#BABABA"/>
</g>
<g style="mix-blend-mode:multiply">
<path d="M574.803 129.743L558.501 129.95L515.562 130.355C497.774 130.442 477.026 130.65 454.791 130.693L385.138 130.835L315.484 130.693C293.249 130.693 272.501 130.442 254.713 130.355L211.708 129.95L195.429 129.743L211.73 129.524L254.702 129.131C272.49 129.033 293.239 128.825 315.473 128.792L385.127 128.65L454.78 128.792C477.015 128.792 497.763 129.044 515.551 129.131L558.523 129.535L574.803 129.743Z" fill="#BABABA"/>
</g>
<g style="mix-blend-mode:multiply">
<path d="M574.803 177.173L558.501 177.38L515.529 177.785C497.741 177.872 476.993 178.069 454.758 178.112L385.105 178.254L315.451 178.112C293.217 178.112 272.468 177.872 254.681 177.785L211.708 177.38L195.429 177.173L211.73 176.954L254.702 176.55C272.49 176.463 293.239 176.255 315.473 176.222L385.127 176.08L454.78 176.222C477.015 176.222 497.763 176.463 515.551 176.55L558.523 176.954L574.803 177.173Z" fill="#BABABA"/>
</g>
<g style="mix-blend-mode:multiply">
<path d="M574.803 224.592L558.501 224.81L515.529 225.204C497.741 225.291 476.993 225.499 454.758 225.542L385.105 225.684L315.451 225.542C293.217 225.542 272.468 225.302 254.681 225.204L211.708 224.81L195.429 224.592L211.73 224.384L254.702 223.98C272.49 223.893 293.239 223.685 315.473 223.641L385.127 223.499L454.78 223.652C477.015 223.652 497.763 223.893 515.551 223.98L558.523 224.384L574.803 224.592Z" fill="#BABABA"/>
</g>
<g style="mix-blend-mode:multiply">
<path d="M574.803 272.022L558.501 272.229L515.562 272.601C497.774 272.688 477.026 272.885 454.791 272.929L385.138 273.082L315.484 272.929C293.249 272.929 272.501 272.688 254.713 272.601L211.741 272.197L195.429 272.022L211.73 271.803L254.702 271.399C272.49 271.312 293.239 271.104 315.473 271.071L385.127 270.929L454.78 271.071C477.015 271.071 497.763 271.312 515.551 271.41L558.523 271.803L574.803 272.022Z" fill="#BABABA"/>
</g>
<g style="mix-blend-mode:multiply">
<path d="M574.803 319.441L558.501 319.659L515.529 320.053C497.741 320.151 476.993 320.348 454.758 320.391L385.105 320.533L315.451 320.391C293.217 320.391 272.468 320.151 254.691 320.064L211.708 319.659L195.429 319.441L211.73 319.233L254.713 318.829C272.49 318.742 293.239 318.534 315.473 318.501L385.127 318.348L454.78 318.501C477.015 318.501 497.763 318.742 515.551 318.829L558.523 319.233L574.803 319.441Z" fill="#BABABA"/>
</g>
<g style="mix-blend-mode:multiply">
<path d="M574.803 366.871L558.501 367.079L515.529 367.483C497.741 367.57 476.993 367.778 454.758 367.821L385.105 367.964L315.451 367.821C293.217 367.821 272.468 367.57 254.691 367.483L211.708 367.079L195.429 366.871L211.73 366.652L254.713 366.259C272.49 366.161 293.239 365.953 315.473 365.92L385.127 365.778L454.78 365.92C477.015 365.92 497.763 366.172 515.551 366.259L558.523 366.663L574.803 366.871Z" fill="#BABABA"/>
</g>
<g style="mix-blend-mode:multiply">
<path d="M574.803 414.301L558.501 414.508L515.529 414.913C497.741 415 476.993 415.197 454.758 415.24L385.105 415.383L315.451 415.24C293.217 415.24 272.468 415 254.691 414.913L211.708 414.508L195.429 414.301L211.73 414.082L254.713 413.678C272.49 413.591 293.239 413.383 315.473 413.35L385.127 413.208L454.78 413.35C477.015 413.35 497.763 413.591 515.551 413.689L558.523 414.082L574.803 414.301Z" fill="#BABABA"/>
</g>
</g>
<path d="M517.247 263.625H405.95V414.481H517.247V263.625Z" fill="white"/>
<path d="M544.632 263.625H517.247V414.481H544.632V263.625Z" fill="#D3D3D3"/>
<path d="M517.247 295.787H405.95" stroke="#D3D3D3" stroke-miterlimit="10"/>
<path d="M434.969 396.897H413.44V407.469H434.969V396.897Z" stroke="#C3C7CC" stroke-width="0.98" stroke-miterlimit="10"/>
<path d="M461.845 280.669C461.845 281.705 461.538 282.718 460.962 283.58C460.387 284.442 459.568 285.113 458.611 285.51C457.653 285.906 456.6 286.01 455.583 285.808C454.567 285.606 453.633 285.107 452.901 284.374C452.168 283.641 451.669 282.707 451.467 281.691C451.264 280.675 451.368 279.621 451.765 278.664C452.161 277.706 452.833 276.888 453.695 276.312C454.556 275.736 455.569 275.429 456.606 275.429C457.995 275.429 459.328 275.981 460.311 276.964C461.293 277.946 461.845 279.279 461.845 280.669Z" fill="#D3D3D3"/>
<path d="M479.075 280.669C479.075 281.705 478.767 282.718 478.192 283.58C477.616 284.442 476.798 285.113 475.84 285.51C474.883 285.906 473.829 286.01 472.813 285.808C471.796 285.606 470.863 285.107 470.13 284.374C469.397 283.641 468.898 282.707 468.696 281.691C468.494 280.675 468.598 279.621 468.994 278.664C469.391 277.706 470.062 276.888 470.924 276.312C471.786 275.736 472.799 275.429 473.835 275.429C475.225 275.429 476.557 275.981 477.54 276.964C478.523 277.946 479.075 279.279 479.075 280.669V280.669Z" fill="#D3D3D3"/>
<path d="M509.511 274.489H487.135V286.849H509.511V274.489Z" stroke="#C3C7CC" stroke-width="0.98" stroke-miterlimit="10"/>
<path d="M442.982 272.07H410.358V289.253H442.982V272.07Z" fill="#50545C"/>
<path d="M460.15 388.129C481.939 388.129 499.602 370.465 499.602 348.677C499.602 326.888 481.939 309.225 460.15 309.225C438.361 309.225 420.698 326.888 420.698 348.677C420.698 370.465 438.361 388.129 460.15 388.129Z" fill="#93979D"/>
<path d="M471.158 375.611C486.033 369.532 493.163 352.545 487.083 337.671C481.004 322.796 464.017 315.666 449.143 321.745C434.268 327.825 427.138 344.811 433.217 359.686C439.297 374.561 456.283 381.691 471.158 375.611Z" fill="#50545C"/>
<path d="M380.83 388.129C402.619 388.129 420.282 370.465 420.282 348.677C420.282 326.888 402.619 309.225 380.83 309.225C359.042 309.225 341.379 326.888 341.379 348.677C341.379 370.465 359.042 388.129 380.83 388.129Z" fill="#C3C7CC"/>
<path d="M409.119 355.407C412.84 339.775 403.184 324.086 387.552 320.364C371.92 316.643 356.231 326.299 352.509 341.931C348.788 357.563 358.444 373.253 374.076 376.974C389.709 380.695 405.398 371.039 409.119 355.407Z" fill="white"/>
<path d="M521.917 232.464H494.747V263.624H521.917V232.464Z" fill="#E1AA2D"/>
<path d="M513.996 232.464H486.826V263.624H513.996V232.464Z" fill="#FFC134"/>
<path d="M489.415 246.041V257.83L511.407 250.71V238.135L489.415 246.041Z" fill="white"/>
<path d="M469.073 255.149H418.664C416.519 255.149 414.781 256.887 414.781 259.032V259.741C414.781 261.886 416.519 263.625 418.664 263.625H469.073C471.218 263.625 472.957 261.886 472.957 259.741V259.032C472.957 256.887 471.218 255.149 469.073 255.149Z" fill="#FC80BE"/>
<path d="M463.294 248.707H424.952C423.318 248.707 421.993 250.032 421.993 251.666V252.19C421.993 253.824 423.318 255.149 424.952 255.149H463.294C464.928 255.149 466.253 253.824 466.253 252.19V251.666C466.253 250.032 464.928 248.707 463.294 248.707Z" fill="white"/>
<path d="M466.499 242.265H428.157C426.523 242.265 425.198 243.59 425.198 245.224V245.748C425.198 247.382 426.523 248.707 428.157 248.707H466.499C468.133 248.707 469.458 247.382 469.458 245.748V245.224C469.458 243.59 468.133 242.265 466.499 242.265Z" fill="white"/>
<path d="M316.937 245.301C323.482 245.301 328.788 239.995 328.788 233.45C328.788 226.905 323.482 221.599 316.937 221.599C310.392 221.599 305.086 226.905 305.086 233.45C305.086 239.995 310.392 245.301 316.937 245.301Z" fill="#1D0A03"/>
<path d="M327.94 243.282C327.94 243.282 325.336 236.948 320.79 238.659C316.244 240.369 316.059 245.825 318.447 247.32C320.836 248.815 327.139 243.914 327.139 243.914L327.94 243.282Z" fill="#FF5BAD"/>
<path d="M330.899 278.989L320.05 293.876L307.367 284.321L323.687 261.96L330.899 278.989Z" fill="#B86658"/>
<path d="M325.213 286.787C325.398 286.525 323.194 275.737 323.194 275.737L329.281 281.208L325.213 286.787Z" fill="#9B493C"/>
<path d="M346.896 247.258C346.896 247.258 354.385 251.065 351.689 261.128C351.689 261.128 349.654 268.402 346.634 278.866C346.274 280.17 345.626 281.376 344.736 282.395C343.846 283.414 342.738 284.219 341.494 284.751C340.25 285.282 338.903 285.527 337.551 285.466C336.2 285.405 334.88 285.04 333.689 284.398C330.241 282.476 327.258 279.819 324.951 276.616L321.73 270.945C314.81 255.657 330.607 239.63 345.802 246.765L346.896 247.258Z" fill="#B86658"/>
<path d="M347.497 269.897L350.009 275.029C350.533 275.861 349.901 277.14 349.207 277.001L345.493 276.246L347.497 269.897Z" fill="#B86658"/>
<path d="M347.512 262.792C347.512 262.792 350.271 263.193 350.101 264.441C350.101 264.441 349.963 265.273 347.558 264.873C345.154 264.472 344.569 264.133 344.476 263.332C344.384 262.53 346.233 262.484 347.512 262.792Z" fill="#1D0A03"/>
<path d="M345.077 269.28C344.985 269.416 344.923 269.569 344.894 269.73C344.865 269.891 344.87 270.056 344.908 270.216C344.947 270.375 345.019 270.524 345.119 270.653C345.219 270.783 345.345 270.89 345.489 270.968C345.633 271.046 345.791 271.093 345.955 271.106C346.118 271.119 346.282 271.097 346.436 271.043C346.591 270.988 346.732 270.902 346.851 270.789C346.97 270.677 347.064 270.541 347.127 270.39C347.254 270.121 347.277 269.815 347.192 269.531C347.106 269.246 346.918 269.003 346.665 268.849C346.396 268.698 346.079 268.658 345.782 268.739C345.485 268.82 345.232 269.014 345.077 269.28V269.28Z" fill="#1D0A03"/>
<path d="M345.139 278.696L343.752 278.172" stroke="#1D0A03" stroke-width="0.61" stroke-linecap="round" stroke-linejoin="round"/>
<path d="M330.761 261.775C330.761 261.775 333.673 236.147 351.442 252.529C351.442 252.529 347.512 236.794 326.646 238.998C324.227 239.367 321.917 240.255 319.874 241.601C317.831 242.947 316.104 244.719 314.81 246.796C311.559 253.114 313.47 259.988 316.105 272.347L325.644 266.445C327.167 264.699 328.884 263.133 330.761 261.775V261.775Z" fill="#1D0A03"/>
<path d="M326.291 252.59L327.324 263.856C356.605 263.856 348.421 247.582 348.421 247.582C348.421 247.582 328.834 234.359 326.291 252.59Z" fill="#1D0A03"/>
<path d="M338.204 261.56L332.702 265.967L330.052 257.953L338.204 261.56Z" fill="#1D0A03"/>
<path d="M344.153 247.69C344.153 247.69 352.814 252.082 352.151 258.847C352.151 258.847 361.397 251.712 348.314 246.518C339.468 243.205 344.153 247.69 344.153 247.69Z" fill="#1D0A03"/>
<path d="M322.839 261.005C322.435 262.02 322.34 263.133 322.567 264.202C322.795 265.271 323.333 266.249 324.116 267.012C324.898 267.776 325.889 268.29 326.964 268.491C328.038 268.691 329.148 268.569 330.153 268.139C331.158 267.71 332.014 266.992 332.611 266.077C333.209 265.162 333.522 264.09 333.511 262.997C333.501 261.904 333.166 260.839 332.55 259.936C331.935 259.032 331.065 258.332 330.052 257.922C328.687 257.375 327.16 257.393 325.808 257.971C324.455 258.549 323.388 259.64 322.839 261.005Z" fill="#B86658"/>
<path d="M329.821 265.042C329.821 265.042 331.362 261.313 327.54 260.419" stroke="#1D0A03" stroke-width="0.61" stroke-linecap="round" stroke-linejoin="round"/>
<path d="M325.351 406.129L334.906 380.177L353.091 377.434L340.269 406.329L327.971 408.949L325.351 406.129Z" fill="#B86658"/>
<path d="M328.68 397.098C328.68 397.098 331.608 401.721 343.906 398.315L362.769 408.625C363.31 408.963 363.726 409.467 363.956 410.062C364.186 410.657 364.216 411.311 364.042 411.924C363.868 412.538 363.5 413.078 362.992 413.464C362.485 413.85 361.866 414.061 361.228 414.065L330.406 413.973C329.418 413.97 328.447 413.722 327.578 413.251C326.71 412.78 325.973 412.101 325.432 411.274C324.891 410.448 324.564 409.5 324.48 408.516C324.396 407.531 324.558 406.542 324.951 405.635L328.68 397.098Z" fill="white"/>
<path d="M284.728 387.774L301.804 364.72L317.199 370.591L295.886 395.449L285.591 391.365L284.728 387.774Z" fill="#B86658"/>
<path d="M305.425 405.019L298.644 392.428C287.965 394.925 286.855 384.862 286.855 384.862C286.855 384.862 276.638 390.209 275.559 392.737C275.053 393.939 275.041 395.293 275.526 396.504C276.01 397.715 276.952 398.687 278.148 399.209L292.634 411.368C295.238 413.106 298.275 414.083 301.403 414.189L310.233 414.481C310.916 414.507 311.581 414.265 312.087 413.807C312.594 413.35 312.902 412.712 312.946 412.031C312.977 411.59 312.896 411.148 312.71 410.746C312.524 410.344 312.239 409.997 311.882 409.735L305.425 405.019Z" fill="white"/>
<path d="M300.956 341.064L347.189 316.854C350.537 315.091 354.345 314.398 358.1 314.867C361.854 315.337 365.375 316.947 368.185 319.481C370.996 322.014 372.962 325.349 373.818 329.035C374.673 332.721 374.378 336.58 372.971 340.093L354.201 386.85L327.709 385.108L340.331 354.04L324.581 369.574C324.581 369.574 303.006 389.192 284.513 382.18C266.02 375.168 263.816 354.888 263.816 354.888L300.956 341.064Z" fill="#237685"/>
<path d="M340.331 354.04L343.012 346.674" stroke="#13454E" stroke-width="0.75" stroke-miterlimit="10"/>
<path d="M322.701 287.897L311.79 283.951C309.121 282.968 306.213 282.839 303.468 283.582C295.578 285.708 279.581 292.582 269.241 314.141C253.83 346.288 258.715 363.795 258.715 363.795C258.715 363.795 296.287 361.268 305.98 338.336C305.98 338.336 303.761 330.631 307.521 327.302C307.521 327.302 318.216 325.576 323.718 310.766L324.334 290.27C324.345 289.753 324.193 289.246 323.9 288.82C323.607 288.394 323.187 288.071 322.701 287.897V287.897Z" fill="#FC80BE"/>
<path d="M396.072 334.514C396.072 334.514 392.235 311.984 410.866 315.343C429.498 318.703 425.753 327.888 435.092 339.631C435.092 339.631 455.65 357.492 426.138 363.81C396.627 370.129 411.344 342.497 396.072 334.514Z" fill="#52D6ED"/>
<path d="M396.056 345.78C394.182 345.641 392.39 344.949 390.909 343.793C389.427 342.636 388.321 341.066 387.731 339.282C387.141 337.497 387.093 335.577 387.594 333.765C388.094 331.953 389.121 330.331 390.543 329.102C391.966 327.873 393.721 327.093 395.586 326.861C397.451 326.63 399.344 326.956 401.024 327.799C402.704 328.642 404.096 329.964 405.025 331.598C405.954 333.232 406.378 335.105 406.243 336.98C406.155 338.228 405.822 339.446 405.261 340.565C404.701 341.683 403.926 342.68 402.979 343.498C402.032 344.315 400.933 344.938 399.745 345.33C398.557 345.721 397.304 345.874 396.056 345.78V345.78Z" fill="#B86658"/>
<path d="M403.793 329.891C403.793 329.891 405.334 325.854 400.418 325.114C395.502 324.374 388.69 326.131 387.257 335.609L403.793 329.891Z" fill="#B86658"/>
<path d="M391.433 327.117L340.577 324.312C334.582 324.127 332.286 328.258 332.733 334.252C332.923 336.925 334.165 339.413 336.188 341.17C338.211 342.926 340.848 343.809 343.521 343.622L389.414 342.081L391.433 327.117Z" fill="#FC80BE"/>
<path d="M324.057 289.16L348.915 325.653C353.137 330.631 354.879 337.889 349.531 341.634C347.231 343.254 344.401 343.937 341.616 343.545C338.831 343.153 336.299 341.715 334.536 339.523L308.338 309.595C304.408 304.71 302.79 292.643 307.876 289.037C312.437 285.693 322.069 287.126 324.057 289.16Z" fill="#FC80BE"/>
<path d="M317.939 320.598L305.98 306.004" stroke="#FF5BAD" stroke-width="0.75" stroke-miterlimit="10"/>
<path d="M392.476 167.629L252.885 167.921L252.902 176.012L392.493 175.72L392.476 167.629Z" fill="#D3D3D3"/>
<path d="M316.768 167.646V136.486L333.026 123.124L336.139 127.794V167.646H316.768Z" fill="#52D6ED"/>
<path d="M331.1 124.696L327.756 120.073C327.669 119.956 327.56 119.858 327.435 119.785C327.31 119.711 327.171 119.664 327.028 119.645C326.884 119.626 326.738 119.637 326.598 119.676C326.458 119.715 326.328 119.782 326.214 119.873L322.593 122.816C322.479 122.905 322.384 123.015 322.313 123.141C322.242 123.267 322.197 123.405 322.18 123.548C322.163 123.691 322.174 123.837 322.213 123.975C322.252 124.114 322.318 124.244 322.408 124.357L325.968 128.98L331.1 124.696Z" fill="#237685"/>
<path d="M293.728 127.732H287.055C286.501 127.917 280.383 131.986 278.163 136.979C275.944 141.972 273.54 151.419 275.944 167.631H297.211C297.211 167.631 302.435 151.249 293.728 127.732ZM285.468 141.725C285.468 141.725 284.744 143.39 284.204 152.374C284.204 152.374 283.942 155.78 281.477 154.978C279.011 154.177 278.61 149.184 279.674 144.576C280.737 139.968 282.756 138.412 284.143 138.412C285.53 138.412 285.776 140.492 285.468 141.725Z" fill="#FFC134"/>
<path d="M288.381 121.183H292.403C292.755 121.183 293.092 121.322 293.34 121.571C293.589 121.819 293.728 122.156 293.728 122.508V127.671H287.055V122.57C287.047 122.39 287.075 122.211 287.138 122.043C287.201 121.875 287.297 121.722 287.421 121.592C287.545 121.463 287.694 121.359 287.859 121.289C288.024 121.219 288.201 121.182 288.381 121.183V121.183Z" fill="#52D6ED"/>
<path d="M357.314 127.717L351.796 167.646H370.105L365.527 127.717H357.314Z" fill="#237685"/>
<path d="M360.057 122.97H363C363.258 122.97 363.505 123.073 363.687 123.255C363.869 123.437 363.971 123.684 363.971 123.941V127.717H359.086V123.941C359.086 123.684 359.188 123.437 359.37 123.255C359.552 123.073 359.799 122.97 360.057 122.97V122.97Z" fill="#52D6ED"/>
<path d="M363.69 409.176C362.137 407.001 356.588 405.352 356.588 405.352C356.588 405.352 356.412 408.057 356.042 409.723C355.628 411.585 352.764 414.093 352.764 414.093H359.866C360.958 414.093 362.326 414.354 363.143 413.547C363.822 412.876 364.236 412.316 364.236 411.362C364.236 410.408 364.47 410.269 363.69 409.176Z" fill="#FFC134"/>
<path d="M328.18 409.723C326.445 406.826 325.995 404.26 325.449 404.26C324.902 404.26 324.356 408.084 324.356 408.084C324.356 408.084 324.45 410.718 325.449 411.908C326.248 412.861 327.015 413.112 328.18 413.547C329.199 413.927 330.912 414.093 331.458 414.093C332.004 414.093 329.505 411.934 328.18 409.723Z" fill="#FFC134"/>
<path d="M312.337 409.723C310.784 407.547 306.328 405.899 306.328 405.899C306.328 405.899 305.059 408.603 304.689 410.269C304.275 412.132 300.865 414.093 300.865 414.093C300.865 414.093 306.38 414.64 308.513 414.64C309.606 414.64 310.973 414.9 311.791 414.093C312.47 413.423 312.884 412.862 312.884 411.908C312.884 410.954 313.117 410.815 312.337 409.723Z" fill="#FFC134"/>
<path d="M278.793 394.998C279.572 391.713 281.589 388.798 281.198 388.417C280.807 388.036 277.92 390.056 277.92 390.056C277.92 390.056 275.305 391.785 275.189 393.334C275.096 394.574 275.189 396.611 276.123 397.737C276.818 398.573 278.622 399.508 279.013 399.889C279.404 400.271 278.198 397.506 278.793 394.998Z" fill="#FFC134"/>
</svg>
