<svg width="832" height="748" viewBox="0 0 832 748" fill="none" xmlns="http://www.w3.org/2000/svg">
<path fill-rule="evenodd" clip-rule="evenodd" d="M736.959 269.281C701.253 224.896 628.435 237.725 579.527 208.519C541.853 186.022 526.68 133.54 485.282 118.989C443.763 104.395 398.658 121.883 355.353 129.723C312.588 137.464 269.199 143.282 231.513 164.928C192.269 187.469 162.164 221.498 133.954 256.888C102.411 296.46 51.6676 334.585 56.0937 384.996C60.7265 437.762 127.024 461.682 155.838 506.129C178.75 541.473 190.869 532.53 215.608 566.62C256.108 570 191.608 566.62 242.608 566.62C304.108 566.62 346.608 566.62 400.608 566.62C452.608 566.62 554.108 566.62 554.108 566.62C554.108 566.62 580.289 566.62 634.108 566.62C686.345 566.62 747.678 479.829 756.346 428.316C765.321 374.983 770.859 311.42 736.959 269.281Z" fill="#CAF1F8"/>
<g style="mix-blend-mode:multiply">
<g style="mix-blend-mode:multiply">
<path d="M213.116 171.603C213.116 171.603 213.193 177.536 213.324 187.905C213.455 198.274 213.564 213.1 213.728 230.888C213.892 248.676 214.023 269.413 214.067 291.648C214.111 313.882 214.154 337.592 214.209 361.301C214.263 385.011 214.111 408.731 214.067 430.966C214.023 453.2 213.816 473.938 213.728 491.726C213.641 509.513 213.466 524.362 213.335 534.709C213.204 545.056 213.116 551.01 213.116 551.01C213.116 551.01 213.04 545.078 212.898 534.709C212.756 524.34 212.668 509.513 212.504 491.726C212.34 473.938 212.209 453.189 212.166 430.966C212.122 408.742 212.078 385.076 212.024 361.301C211.969 337.526 212.122 313.882 212.166 291.648C212.209 269.413 212.417 248.665 212.504 230.888C212.592 213.111 212.81 198.285 212.909 187.905C213.007 177.525 213.116 171.603 213.116 171.603Z" fill="#BABABA"/>
</g>
<g style="mix-blend-mode:multiply">
<path d="M260.546 171.603C260.546 171.603 260.623 177.536 260.754 187.905C260.885 198.274 260.983 213.1 261.158 230.888C261.333 248.676 261.442 269.413 261.486 291.648C261.53 313.882 261.584 337.592 261.639 361.301C261.693 385.011 261.53 408.731 261.486 430.966C261.442 453.2 261.246 473.938 261.158 491.726C261.071 509.513 260.852 524.329 260.754 534.709C260.655 545.088 260.546 551.01 260.546 551.01C260.546 551.01 260.47 545.078 260.328 534.709C260.186 524.34 260.098 509.513 259.923 491.726C259.749 473.938 259.628 453.189 259.596 430.966C259.563 408.742 259.497 385.076 259.454 361.301C259.41 337.526 259.552 313.882 259.596 291.648C259.639 269.413 259.836 248.665 259.934 230.888C260.033 213.111 260.229 198.285 260.328 187.905C260.426 177.525 260.546 171.603 260.546 171.603Z" fill="#BABABA"/>
</g>
<g style="mix-blend-mode:multiply">
<path d="M307.965 171.603C307.965 171.603 308.042 177.536 308.184 187.905C308.326 198.274 308.413 213.1 308.577 230.888C308.741 248.676 308.872 269.413 308.916 291.648C308.96 313.882 309.014 337.592 309.058 361.301C309.102 385.011 308.96 408.731 308.916 430.966C308.872 453.2 308.675 473.938 308.577 491.726C308.479 509.513 308.282 524.329 308.184 534.709C308.085 545.088 307.965 551.01 307.965 551.01C307.965 551.01 307.889 545.078 307.758 534.709C307.627 524.34 307.517 509.513 307.353 491.726C307.19 473.938 307.058 453.189 307.015 430.966C306.971 408.742 306.927 385.076 306.873 361.301C306.818 337.526 306.971 313.882 307.026 291.648C307.08 269.413 307.266 248.665 307.353 230.888C307.441 213.111 307.659 198.285 307.758 187.905C307.856 177.525 307.965 171.603 307.965 171.603Z" fill="#BABABA"/>
</g>
<g style="mix-blend-mode:multiply">
<path d="M355.395 171.603C355.395 171.603 355.472 177.536 355.603 187.905C355.734 198.274 355.843 213.1 356.007 230.888C356.171 248.676 356.291 269.413 356.335 291.648C356.379 313.882 356.433 337.592 356.488 361.301C356.542 385.011 356.39 408.731 356.346 430.966C356.302 453.2 356.095 473.938 356.007 491.726C355.92 509.513 355.701 524.329 355.603 534.709C355.505 545.088 355.395 551.01 355.395 551.01C355.395 551.01 355.319 545.078 355.177 534.709C355.035 524.34 354.947 509.513 354.772 491.726C354.598 473.938 354.477 453.189 354.445 430.966C354.412 408.742 354.346 385.076 354.303 361.301C354.259 337.526 354.401 313.882 354.445 291.648C354.488 269.413 354.685 248.665 354.783 230.888C354.882 213.111 355.089 198.285 355.177 187.905C355.264 177.525 355.395 171.603 355.395 171.603Z" fill="#BABABA"/>
</g>
<g style="mix-blend-mode:multiply">
<path d="M402.814 171.603C402.814 171.603 402.891 177.536 403.033 187.905C403.175 198.274 403.262 213.1 403.426 230.888C403.59 248.676 403.721 269.413 403.765 291.648C403.809 313.882 403.863 337.592 403.907 361.301C403.951 385.011 403.809 408.731 403.765 430.966C403.721 453.2 403.525 473.938 403.437 491.726C403.35 509.513 403.131 524.329 403.033 534.709C402.935 545.088 402.814 551.01 402.814 551.01C402.814 551.01 402.738 545.078 402.607 534.709C402.476 524.34 402.366 509.513 402.202 491.726C402.039 473.938 401.907 453.189 401.875 430.966C401.842 408.742 401.776 385.076 401.722 361.301C401.667 337.526 401.82 313.882 401.875 291.648C401.929 269.413 402.115 248.665 402.202 230.888C402.29 213.111 402.508 198.285 402.607 187.905C402.705 177.525 402.814 171.603 402.814 171.603Z" fill="#BABABA"/>
</g>
<g style="mix-blend-mode:multiply">
<path d="M450.244 171.603C450.244 171.603 450.321 177.536 450.452 187.905C450.583 198.274 450.692 213.1 450.856 230.888C451.02 248.676 451.151 269.413 451.195 291.648C451.239 313.882 451.282 337.592 451.337 361.301C451.392 385.011 451.239 408.731 451.195 430.955C451.151 453.179 450.944 473.938 450.856 491.726C450.769 509.513 450.561 524.362 450.452 534.698C450.343 545.034 450.244 550.999 450.244 550.999C450.244 550.999 450.168 545.078 450.026 534.698C449.884 524.318 449.796 509.502 449.632 491.726C449.469 473.949 449.337 453.189 449.294 430.955C449.25 408.72 449.206 385.066 449.152 361.301C449.097 337.537 449.25 313.882 449.294 291.648C449.337 269.413 449.545 248.665 449.632 230.888C449.72 213.111 449.938 198.285 450.037 187.905C450.135 177.525 450.244 171.603 450.244 171.603Z" fill="#BABABA"/>
</g>
<g style="mix-blend-mode:multiply">
<path d="M497.663 171.603C497.663 171.603 497.74 177.536 497.882 187.905C498.024 198.274 498.111 213.1 498.275 230.888C498.439 248.676 498.57 269.413 498.614 291.648C498.658 313.882 498.712 337.592 498.756 361.301C498.8 385.011 498.658 408.731 498.614 430.955C498.57 453.179 498.373 473.938 498.286 491.726C498.199 509.513 497.98 524.329 497.882 534.698C497.783 545.067 497.663 550.999 497.663 550.999C497.663 550.999 497.587 545.078 497.456 534.698C497.325 524.318 497.215 509.502 497.051 491.726C496.888 473.949 496.756 453.189 496.724 430.955C496.691 408.72 496.625 385.066 496.582 361.301C496.538 337.537 496.68 313.882 496.724 291.648C496.767 269.413 496.964 248.665 497.051 230.888C497.139 213.111 497.357 198.285 497.456 187.905C497.554 177.525 497.663 171.603 497.663 171.603Z" fill="#BABABA"/>
</g>
<g style="mix-blend-mode:multiply">
<path d="M545.093 171.603C545.093 171.603 545.17 177.536 545.301 187.905C545.432 198.274 545.541 213.1 545.705 230.888C545.869 248.676 546 269.413 546.044 291.648C546.088 313.882 546.131 337.592 546.186 361.301C546.241 385.011 546.088 408.731 546.044 430.955C546 453.179 545.793 473.938 545.705 491.726C545.618 509.513 545.399 524.329 545.301 534.698C545.203 545.067 545.093 550.999 545.093 550.999C545.093 550.999 545.017 545.078 544.886 534.698C544.755 524.318 544.645 509.502 544.481 491.726C544.318 473.949 544.186 453.189 544.143 430.955C544.099 408.72 544.055 385.066 544.001 361.301C543.946 337.537 544.099 313.882 544.143 291.648C544.186 269.413 544.394 248.665 544.481 230.888C544.569 213.111 544.787 198.285 544.886 187.905C544.984 177.525 545.093 171.603 545.093 171.603Z" fill="#BABABA"/>
</g>
<g style="mix-blend-mode:multiply">
<path d="M568.803 195.313L552.501 195.488L509.562 195.925C491.774 196.023 471.026 196.22 448.791 196.263L379.138 196.405L309.484 196.263C287.249 196.263 266.501 196.023 248.713 195.936L205.708 195.488L189.429 195.313L205.73 195.105L248.702 194.701C266.49 194.614 287.239 194.406 309.473 194.373L379.127 194.22L448.78 194.373C471.015 194.373 491.763 194.614 509.551 194.701L552.523 195.105L568.803 195.313Z" fill="#BABABA"/>
</g>
<g style="mix-blend-mode:multiply">
<path d="M568.803 242.743L552.501 242.95L509.562 243.355C491.774 243.442 471.026 243.65 448.791 243.693L379.138 243.835L309.484 243.693C287.249 243.693 266.501 243.442 248.713 243.355L205.708 242.95L189.429 242.743L205.73 242.524L248.702 242.131C266.49 242.033 287.239 241.825 309.473 241.792L379.127 241.65L448.78 241.792C471.015 241.792 491.763 242.044 509.551 242.131L552.523 242.535L568.803 242.743Z" fill="#BABABA"/>
</g>
<g style="mix-blend-mode:multiply">
<path d="M568.803 290.173L552.501 290.38L509.529 290.785C491.741 290.872 470.993 291.069 448.758 291.112L379.105 291.254L309.451 291.112C287.217 291.112 266.468 290.872 248.681 290.785L205.708 290.38L189.429 290.173L205.73 289.954L248.702 289.55C266.49 289.463 287.239 289.255 309.473 289.222L379.127 289.08L448.78 289.222C471.015 289.222 491.763 289.463 509.551 289.55L552.523 289.954L568.803 290.173Z" fill="#BABABA"/>
</g>
<g style="mix-blend-mode:multiply">
<path d="M568.803 337.592L552.501 337.81L509.529 338.204C491.741 338.291 470.993 338.499 448.758 338.542L379.105 338.684L309.451 338.542C287.217 338.542 266.468 338.302 248.681 338.204L205.708 337.81L189.429 337.592L205.73 337.384L248.702 336.98C266.49 336.893 287.239 336.685 309.473 336.641L379.127 336.499L448.78 336.652C471.015 336.652 491.763 336.893 509.551 336.98L552.523 337.384L568.803 337.592Z" fill="#BABABA"/>
</g>
<g style="mix-blend-mode:multiply">
<path d="M568.803 385.022L552.501 385.229L509.562 385.601C491.774 385.688 471.026 385.885 448.791 385.929L379.138 386.082L309.484 385.929C287.249 385.929 266.501 385.688 248.713 385.601L205.741 385.197L189.429 385.022L205.73 384.803L248.702 384.399C266.49 384.312 287.239 384.104 309.473 384.071L379.127 383.929L448.78 384.071C471.015 384.071 491.763 384.312 509.551 384.41L552.523 384.803L568.803 385.022Z" fill="#BABABA"/>
</g>
<g style="mix-blend-mode:multiply">
<path d="M568.803 432.441L552.501 432.659L509.529 433.053C491.741 433.151 470.993 433.348 448.758 433.391L379.105 433.533L309.451 433.391C287.217 433.391 266.468 433.151 248.691 433.064L205.708 432.659L189.429 432.441L205.73 432.233L248.713 431.829C266.49 431.742 287.239 431.534 309.473 431.501L379.127 431.348L448.78 431.501C471.015 431.501 491.763 431.742 509.551 431.829L552.523 432.233L568.803 432.441Z" fill="#BABABA"/>
</g>
<g style="mix-blend-mode:multiply">
<path d="M568.803 479.871L552.501 480.079L509.529 480.483C491.741 480.57 470.993 480.778 448.758 480.821L379.105 480.964L309.451 480.821C287.217 480.821 266.468 480.57 248.691 480.483L205.708 480.079L189.429 479.871L205.73 479.652L248.713 479.259C266.49 479.161 287.239 478.953 309.473 478.92L379.127 478.778L448.78 478.92C471.015 478.92 491.763 479.172 509.551 479.259L552.523 479.663L568.803 479.871Z" fill="#BABABA"/>
</g>
<g style="mix-blend-mode:multiply">
<path d="M568.803 527.301L552.501 527.508L509.529 527.913C491.741 528 470.993 528.197 448.758 528.24L379.105 528.383L309.451 528.24C287.217 528.24 266.468 528 248.691 527.913L205.708 527.508L189.429 527.301L205.73 527.082L248.713 526.678C266.49 526.591 287.239 526.383 309.473 526.35L379.127 526.208L448.78 526.35C471.015 526.35 491.763 526.591 509.551 526.689L552.523 527.082L568.803 527.301Z" fill="#BABABA"/>
</g>
</g>
<path d="M281.548 418.245C279.733 417.221 277.732 416.568 275.663 416.323C273.594 416.079 271.496 416.248 269.493 416.822C267.529 417.405 265.693 418.416 263.686 418.871C261.993 419.241 260.256 419.227 258.548 419.497C255.699 419.995 253.045 421.28 250.888 423.206C248.73 425.133 247.154 427.624 246.337 430.399C252.03 428.649 257.723 432.733 263.416 434.669C267.455 435.888 271.665 436.445 275.883 436.32C281.22 436.32 287.07 435.082 288.692 429.204C290.001 424.578 285.091 420.223 281.548 418.245Z" fill="#767676"/>
<path d="M274.118 385.739C268.697 384.095 263.01 383.506 257.367 384.002C251.674 384.358 245.796 385.425 241 388.599C245.654 389.88 248.942 393.894 252.727 396.868C259.041 401.79 267.032 404.043 274.987 403.144C278.53 402.718 287.696 400.483 286.97 395.459C286.287 390.748 277.975 387.019 274.118 385.739Z" fill="#767676"/>
<path d="M261.679 374.025C265.949 374.509 269.493 377.242 272.667 380.074C275.84 382.906 278.943 386.023 282.9 387.546C285.019 388.324 287.26 388.719 289.518 388.713C290.97 388.839 292.428 388.543 293.716 387.859C294.956 386.894 295.781 385.492 296.022 383.939C296.263 382.386 295.901 380.8 295.011 379.505C293.033 377.185 288.137 375.449 285.319 374.438C277.709 371.65 269.382 371.505 261.679 374.025V374.025Z" fill="#34607B"/>
<path d="M261.679 374.025C265.949 374.509 269.493 377.242 272.667 380.074C275.84 382.906 278.943 386.023 282.9 387.546C285.019 388.324 287.26 388.719 289.518 388.713C290.97 388.839 292.428 388.543 293.716 387.859C294.956 386.894 295.781 385.492 296.022 383.939C296.263 382.386 295.901 380.8 295.011 379.505C293.033 377.185 288.137 375.449 285.319 374.438C277.709 371.65 269.382 371.505 261.679 374.025Z" fill="#484848"/>
<path d="M277.008 373.029C275.08 369.449 274.017 365.466 273.905 361.401C273.236 352.136 275.072 341.974 281.946 335.783C283.17 340.807 288.436 343.483 292.393 346.785C296.102 350.01 298.942 354.114 300.653 358.722C302.363 363.33 302.89 368.293 302.184 373.157C301.757 376.004 300.761 379.647 298.598 381.697C296.591 383.561 294.741 382.992 292.25 382.451C286.23 381.17 280.309 378.48 277.008 373.029Z" fill="#767676"/>
<path d="M305.714 371.094C307.524 365.748 310.877 361.058 315.349 357.616C320.231 354.043 326.336 352.535 332.328 351.766C332.286 357.31 331.579 362.829 330.222 368.204C328.845 373.624 325.656 378.41 321.184 381.768C317.612 384.244 309.243 387.617 304.803 386.208C300.661 384.899 304.604 374.21 305.714 371.094Z" fill="#767676"/>
<path d="M314.04 394.762C319.822 391.042 326.813 389.686 333.566 390.976C337.836 391.93 341.992 394.178 346.375 393.595C345.521 397.102 343.849 400.357 341.497 403.095C339.145 405.833 336.178 407.976 332.84 409.35C326.777 411.769 320.031 411.456 313.485 411.115C310.04 410.93 306.582 410.759 303.138 410.56C299.238 410.332 299.622 409.378 301.715 406.503C305.025 401.829 309.211 397.842 314.04 394.762V394.762Z" fill="#34607B"/>
<path d="M314.04 394.762C319.822 391.042 326.813 389.686 333.566 390.976C337.836 391.93 341.992 394.178 346.375 393.595C345.521 397.102 343.849 400.357 341.497 403.095C339.145 405.833 336.178 407.976 332.84 409.35C326.777 411.769 320.031 411.456 313.485 411.115C310.04 410.93 306.582 410.759 303.138 410.56C299.238 410.332 299.622 409.378 301.715 406.503C305.025 401.829 309.211 397.842 314.04 394.762V394.762Z" fill="#484848"/>
<path d="M319.932 424.222C323.836 424.335 327.663 425.341 331.117 427.165C334.572 428.988 337.561 431.58 339.857 434.74C333.174 438.786 325.641 441.222 317.854 441.856C314.293 442.283 310.682 441.894 307.294 440.718C304.819 439.793 302.708 438.096 301.273 435.879C299.537 432.947 301.43 431.509 303.807 429.645C308.407 426.053 314.096 424.14 319.932 424.222V424.222Z" fill="#767676"/>
<path d="M282.8 347.881C284.138 352.378 286.572 356.42 288.706 360.69C293.27 369.257 296.168 378.611 297.246 388.258C297.658 394.024 297.658 399.812 297.246 405.578L294.812 456.031C294.639 457.148 294.829 458.29 295.353 459.29C295.993 460.216 297.559 460.557 298.199 459.632C296.42 454.167 296.776 448.246 297.132 442.553C298.028 428.193 297.943 413.861 298.555 399.416C298.969 394.103 298.84 388.762 298.171 383.476C296.748 374.751 292.478 366.781 288.322 359.01L282.8 347.881Z" fill="#042B30"/>
<path d="M297.488 395.943C302.178 382.165 311.814 370.618 324.529 363.536C312.12 370.859 302.865 382.522 298.555 396.27L297.488 395.943Z" fill="#042B30"/>
<path d="M249.867 387.674C254.193 387.755 258.494 388.357 262.676 389.467C266.945 390.506 271.087 391.545 275.257 392.769C279.441 393.992 283.493 395.627 287.354 397.651C291.217 399.704 294.804 402.239 298.028 405.194L297.288 405.977C294.186 403.005 290.713 400.446 286.956 398.363C283.187 396.274 279.214 394.577 275.1 393.296C270.987 391.972 266.789 390.848 262.619 389.724C258.463 388.541 254.183 387.853 249.867 387.674V387.674Z" fill="#042B30"/>
<path d="M297.032 411.912C303.054 407.877 309.646 404.763 316.587 402.675C323.489 400.56 330.527 398.914 337.651 397.75C330.572 399.09 323.592 400.906 316.758 403.187C309.945 405.444 303.507 408.706 297.658 412.865L297.032 411.912Z" fill="#042B30"/>
<path d="M296.42 435.409C298.852 433.775 301.69 432.848 304.618 432.733C307.464 432.534 310.311 432.349 313.086 432.207C318.736 431.834 324.407 431.953 330.037 432.562C324.401 432.126 318.739 432.188 313.115 432.747C310.268 432.975 307.422 433.26 304.689 433.544C301.93 433.725 299.277 434.676 297.032 436.291L296.42 435.409Z" fill="#042B30"/>
<path d="M262.149 424.963C268.121 423.616 274.315 423.599 280.294 424.912C286.273 426.225 291.89 428.837 296.748 432.563L296.079 433.402C291.385 429.598 285.914 426.87 280.052 425.412C274.189 423.954 268.078 423.8 262.149 424.963Z" fill="#042B30"/>
<path d="M277.406 376.544C280.124 377.614 282.772 378.855 285.333 380.259C287.924 381.687 290.199 383.623 292.022 385.952C292.9 387.139 293.663 388.406 294.3 389.738C294.94 391.047 295.58 392.356 296.178 393.709C297.465 396.377 298.178 399.286 298.27 402.248H297.374C297.353 399.381 296.732 396.549 295.552 393.936C295.011 392.598 294.399 391.275 293.787 389.951C292.077 385.932 289.071 382.6 285.248 380.487C282.723 379.002 280.104 377.685 277.406 376.544V376.544Z" fill="#042B30"/>
<path d="M314.766 515.408H281.619C281.084 515.408 280.57 515.198 280.19 514.822C279.809 514.447 279.591 513.936 279.583 513.402L278.886 457.384H317.498L316.801 513.402C316.793 513.936 316.576 514.447 316.195 514.822C315.814 515.198 315.3 515.408 314.766 515.408V515.408Z" fill="#52D6ED"/>
<path opacity="0.2" d="M316.801 513.401C316.793 513.936 316.576 514.447 316.195 514.822C315.814 515.198 315.3 515.408 314.766 515.408H281.619C281.084 515.408 280.57 515.198 280.19 514.822C279.809 514.447 279.591 513.936 279.583 513.401H316.801Z" fill="#020202"/>
<path d="M264.995 454.665C263.13 459.666 262.269 464.986 262.462 470.321L278.431 464.485C284.422 462.294 290.044 456.942 290.813 450.324C290.979 449.128 290.917 447.911 290.628 446.738C290.255 445.562 289.628 444.481 288.792 443.574C287.956 442.666 286.931 441.954 285.789 441.486C276.723 437.458 268.098 446.951 264.995 454.665Z" fill="#34607B"/>
<path d="M264.995 454.665C263.13 459.666 262.269 464.986 262.462 470.321L278.431 464.485C284.422 462.294 290.044 456.942 290.813 450.324C290.979 449.128 290.917 447.911 290.628 446.738C290.255 445.562 289.628 444.481 288.792 443.574C287.956 442.666 286.931 441.954 285.789 441.486C276.723 437.458 268.098 446.951 264.995 454.665Z" fill="#484848"/>
<path d="M268.369 460.87C269.627 458.265 271.133 455.787 272.866 453.47C274.723 451.229 276.988 449.36 279.541 447.962C281.992 446.318 284.795 445.275 287.724 444.916C289.183 444.814 290.646 444.79 292.108 444.845C292.898 444.824 293.685 444.965 294.419 445.258C295.153 445.552 295.82 445.992 296.377 446.553L295.538 447.236C295.08 446.775 294.534 446.412 293.932 446.167C293.331 445.923 292.686 445.802 292.037 445.813C290.616 445.703 289.19 445.679 287.767 445.742C284.938 446.008 282.209 446.929 279.797 448.431C277.243 449.737 274.955 451.509 273.051 453.655C271.263 455.905 269.695 458.321 268.369 460.87V460.87Z" fill="#042B30"/>
<path d="M362.956 371.535L365.005 384.628C365.195 387.022 365.967 389.333 367.254 391.36C368.12 392.152 369.123 392.779 370.214 393.211C371.453 393.91 372.642 394.695 373.772 395.559C374.4 395.991 374.921 396.56 375.295 397.224C375.472 397.556 375.544 397.934 375.501 398.308C375.458 398.682 375.301 399.033 375.053 399.316L373.63 399.046C374.275 400.262 374.753 401.559 375.053 402.903C375.209 403.449 375.238 404.023 375.139 404.582C375.083 404.862 374.951 405.122 374.758 405.333C374.564 405.543 374.317 405.697 374.043 405.778C373.246 405.934 372.534 405.308 371.979 404.71C371.787 404.883 371.561 405.012 371.315 405.09C371.069 405.168 370.809 405.192 370.553 405.161C370.296 405.13 370.05 405.045 369.829 404.91C369.609 404.776 369.42 404.596 369.275 404.383C369.09 404.629 368.845 404.825 368.564 404.951C368.283 405.077 367.974 405.13 367.667 405.104C367.36 405.079 367.064 404.975 366.808 404.804C366.551 404.633 366.343 404.4 366.201 404.127C366.022 404.342 365.78 404.495 365.509 404.564C365.238 404.633 364.952 404.614 364.692 404.511C364.177 404.291 363.729 403.937 363.397 403.486C361.928 401.717 361.092 399.508 361.02 397.21C361.08 396.15 361.032 395.086 360.878 394.036C360.688 393.301 360.395 392.597 360.01 391.944C357.518 387.539 355.289 382.991 353.335 378.324C351.392 373.643 350.752 368.523 351.485 363.508C351.528 362.886 351.712 362.283 352.023 361.743C352.333 361.203 352.763 360.741 353.278 360.391C353.728 360.2 354.212 360.102 354.701 360.102C355.19 360.102 355.674 360.2 356.124 360.391C360.963 362.014 362.287 367.094 362.956 371.535Z" fill="#F9B377"/>
<path opacity="0.1" d="M362.956 371.535L365.005 384.628C365.195 387.022 365.967 389.333 367.254 391.36C368.12 392.152 369.123 392.779 370.214 393.211C371.453 393.91 372.642 394.695 373.772 395.559C374.4 395.991 374.921 396.56 375.295 397.224C375.472 397.556 375.544 397.934 375.501 398.308C375.458 398.682 375.301 399.033 375.053 399.316L373.63 399.046C374.275 400.262 374.753 401.559 375.053 402.903C375.209 403.449 375.238 404.023 375.139 404.582C375.083 404.862 374.951 405.122 374.758 405.333C374.564 405.543 374.317 405.697 374.043 405.778C373.246 405.934 372.534 405.308 371.979 404.71C371.787 404.883 371.561 405.012 371.315 405.09C371.069 405.168 370.809 405.192 370.553 405.161C370.296 405.13 370.05 405.045 369.829 404.91C369.609 404.776 369.42 404.596 369.275 404.383C369.09 404.629 368.845 404.825 368.564 404.951C368.283 405.077 367.974 405.13 367.667 405.104C367.36 405.079 367.064 404.975 366.808 404.804C366.551 404.633 366.343 404.4 366.201 404.127C366.022 404.342 365.78 404.495 365.509 404.564C365.238 404.633 364.952 404.614 364.692 404.511C364.177 404.291 363.729 403.937 363.397 403.486C361.928 401.717 361.092 399.508 361.02 397.21C361.08 396.15 361.032 395.086 360.878 394.036C360.688 393.301 360.395 392.597 360.01 391.944C357.518 387.539 355.289 382.991 353.335 378.324C351.392 373.643 350.752 368.523 351.485 363.508C351.528 362.886 351.712 362.283 352.023 361.743C352.333 361.203 352.763 360.741 353.278 360.391C353.728 360.2 354.212 360.102 354.701 360.102C355.19 360.102 355.674 360.2 356.124 360.391C360.963 362.014 362.287 367.094 362.956 371.535Z" fill="#020202"/>
<path d="M343.344 357.971C344.116 360.563 345.206 363.049 346.589 365.372C347.073 366.198 350.574 371.748 350.019 372.488C351.131 371.002 352.56 369.781 354.201 368.915C355.843 368.049 357.657 367.558 359.512 367.479C360.404 367.562 361.3 367.363 362.073 366.909C363.326 365.885 362.643 363.906 361.96 362.455C359.864 358.016 358.55 353.25 358.074 348.365C358.046 345.704 357.59 343.066 356.722 340.551C355.711 338.384 353.981 336.634 351.826 335.598C349.421 334.403 347.315 334.873 344.881 334.389C343.073 334.033 341.75 332.496 339.772 333.592C337.793 334.688 337.893 336.822 338.277 338.587C339.7 345.12 341.422 351.595 343.344 357.971Z" fill="#237685"/>
<path d="M464.289 404.852L348.809 511.352" stroke="#042B30" stroke-miterlimit="10" stroke-linecap="round"/>
<path d="M485.58 404.852L370.1 511.352" stroke="#042B30" stroke-miterlimit="10" stroke-linecap="round"/>
<path d="M353.776 404.852L407.972 512.761" stroke="#042B30" stroke-miterlimit="10" stroke-linecap="round"/>
<path d="M336.27 404.852L390.452 512.761" stroke="#042B30" stroke-miterlimit="10" stroke-linecap="round"/>
<path d="M387.065 375.135C376.704 375.477 366.642 378.793 357.177 382.935C346.532 387.574 336.114 393.495 328.798 402.518C321.483 411.541 317.797 424.151 321.768 435.053C323.988 441.13 328.329 446.183 331.36 451.904C334.392 457.625 336.028 464.898 332.613 470.406C330.313 473.708 326.921 476.092 323.034 477.138C319.171 478.167 315.251 478.965 311.293 479.529C303.408 481.037 289.261 485.834 288.521 495.54C288.391 498.401 289.179 501.229 290.77 503.61C294.556 509.616 301.458 513.103 308.432 514.355C315.406 515.607 322.664 514.896 329.652 514.17" stroke="#042B30" stroke-width="0.75" stroke-miterlimit="10"/>
<path d="M443.197 398.476L445.004 401.323C445.021 401.35 445.031 401.381 445.034 401.413C445.038 401.445 445.034 401.477 445.023 401.507C445.012 401.537 444.994 401.564 444.971 401.586C444.948 401.609 444.921 401.626 444.891 401.636C442.229 402.362 420.482 407.955 404.443 401.963C404.296 401.914 404.161 401.836 404.046 401.733C403.931 401.631 403.837 401.506 403.771 401.367C403.704 401.227 403.666 401.076 403.66 400.922C403.653 400.768 403.677 400.614 403.731 400.469L405.026 397.281L443.197 398.476Z" fill="#042B30"/>
<path d="M421.436 385.596C418.039 386.592 414.444 386.71 410.99 385.938C410.157 385.838 409.394 385.426 408.855 384.785C408.617 384.387 408.481 383.938 408.456 383.476C408.342 382.792 408.243 382.052 408.143 381.426C407.543 381.602 407.001 381.937 406.575 382.395C406.149 382.854 405.855 383.419 405.724 384.031C405.292 385.412 405.204 386.877 405.467 388.3C405.506 388.71 405.687 389.093 405.98 389.382C406.152 389.512 406.344 389.613 406.549 389.681C407.46 390.051 408.371 390.407 409.296 390.691C413.035 391.538 416.904 391.64 420.682 390.99C421.198 390.985 421.698 390.81 422.105 390.492C422.425 390.091 422.578 389.581 422.532 389.069C422.572 387.89 422.476 386.711 422.247 385.554L421.436 385.596Z" fill="#EDEDED"/>
<path d="M400.785 395.715C400.785 395.715 402.08 397.395 415.202 399.985C428.324 402.575 441.091 398.932 442.756 398.789C444.421 398.647 443.453 397.537 443.453 397.537C443.453 397.537 438.216 390.592 433.491 384.728C428.765 378.864 423.955 377.797 423.955 377.797L406.392 377.939C402.592 379.362 399.362 387.432 399.276 391.033C399.191 394.634 400.785 395.715 400.785 395.715ZM406.649 385.667C406.947 383.846 407.161 382.18 408.883 381.398C410.605 380.615 419.6 381.227 419.6 381.227C419.6 381.227 420.34 381.042 421.023 382.38C421.454 383.969 421.632 385.617 421.55 387.261C421.55 387.261 421.72 389.126 418.974 389.382C416.227 389.638 408.314 388.087 408.314 388.087C407.804 387.931 407.362 387.607 407.06 387.167C406.757 386.728 406.612 386.199 406.649 385.667V385.667Z" fill="white"/>
<path d="M413.338 387.973C413.437 388.443 415.145 388.557 417.152 388.229C419.159 387.902 420.696 387.261 420.596 386.806L420.098 384.614L412.84 385.795L413.338 387.973Z" fill="#032123"/>
<path d="M412.84 385.795C412.939 386.265 414.647 386.379 416.654 386.052C418.661 385.724 420.198 385.084 420.098 384.628C419.998 384.173 418.276 384.059 416.27 384.386C414.263 384.714 412.768 385.326 412.84 385.795Z" fill="#042B30"/>
<path d="M422.261 379.206C422.261 379.434 423.158 379.476 424.14 379.32C425.122 379.163 425.876 378.85 425.819 378.622L425.577 377.555L422.019 378.139L422.261 379.206Z" fill="#032123"/>
<path d="M422.019 378.139C422.019 378.366 422.916 378.423 423.898 378.252C424.88 378.082 425.62 377.783 425.577 377.555C425.535 377.327 424.681 377.27 423.699 377.441C422.717 377.612 421.977 377.911 422.019 378.139Z" fill="#042B30"/>
<path d="M424.51 385.269C424.667 385.966 425.207 386.45 425.706 386.365C426.204 386.279 426.488 385.667 426.332 384.942C426.175 384.216 425.649 383.76 425.136 383.846C424.624 383.931 424.354 384.586 424.51 385.269Z" fill="#FC80BE"/>
<path d="M428.097 381.398C428.872 381.046 429.748 380.986 430.564 381.229C431.38 381.472 432.081 382.002 432.537 382.721L433.106 384.486L430.957 384.828L428.097 381.398Z" fill="#042B30"/>
<path d="M432.537 382.721L433.092 384.486L430.957 384.828L432.537 382.721Z" fill="#032123"/>
<path d="M498.603 401.778H346.204V406.276H498.603V401.778Z" fill="#767676"/>
<path d="M346.347 511.935C347.901 512.814 349.536 513.543 351.228 514.113C352.769 514.402 354.25 514.945 355.612 515.721C356.297 516.234 356.772 516.977 356.95 517.813C357.038 518.155 357.04 518.514 356.955 518.856C356.871 519.199 356.703 519.516 356.466 519.777C355.952 520.243 355.314 520.549 354.63 520.66C347.941 522.254 340.953 519.948 334.079 520.133C332.061 520.337 330.028 520.313 328.016 520.062C327.772 520.027 327.541 519.929 327.347 519.777C327.142 519.498 327.046 519.154 327.076 518.81C327.076 518.511 327.076 518.226 327.076 517.927C326.811 514.551 327.257 511.157 328.386 507.965C328.613 507.41 328.969 506.812 329.567 506.741C329.917 506.732 330.264 506.811 330.577 506.968C333.168 507.95 335.559 506.072 337.921 507.41C340.682 509.018 343.529 510.455 346.347 511.935Z" fill="white"/>
<path d="M327.062 517.956C327.062 518.255 327.062 518.539 327.062 518.838C327.032 519.183 327.128 519.527 327.333 519.806C327.527 519.957 327.758 520.055 328.001 520.091C330.013 520.342 332.047 520.365 334.064 520.162C340.938 519.977 347.927 522.282 354.616 520.688C355.3 520.578 355.938 520.271 356.452 519.806C356.688 519.544 356.856 519.228 356.941 518.885C357.025 518.542 357.024 518.184 356.936 517.842C356.527 518.291 355.99 518.604 355.398 518.739C351.924 519.609 348.316 519.807 344.767 519.322C341.209 518.966 337.651 518.354 334.093 518.354C331.743 518.392 329.393 518.259 327.062 517.956V517.956Z" fill="#042B30"/>
<path d="M336.228 502.855L336.327 508.022C336.362 508.2 336.362 508.384 336.327 508.562C336.238 508.802 336.086 509.014 335.886 509.174C335.127 509.77 334.189 510.091 333.225 510.085C332.265 510.082 331.309 509.963 330.378 509.73C330.24 509.715 330.108 509.666 329.994 509.587C329.916 509.509 329.855 509.416 329.816 509.313C329.777 509.21 329.76 509.1 329.766 508.989C329.496 506.655 329.325 504.307 329.225 501.959L336.228 502.855Z" fill="#F9B377"/>
<path d="M336.427 391.816C336.706 391.838 336.976 391.931 337.21 392.086C337.567 392.401 337.796 392.837 337.85 393.31C339.003 398.192 338.476 403.557 338.604 408.553C338.766 414.445 338.88 420.337 338.946 426.229C339.069 437.615 339.069 449.043 338.946 460.515C338.718 474.846 338.619 489.306 337.793 503.581C337.801 503.756 337.745 503.928 337.637 504.065C337.487 504.2 337.296 504.28 337.096 504.293C333.989 504.919 330.8 505.02 327.66 504.592C326.948 504.492 327.66 468.143 327.418 464.742C326.863 453.498 327.048 442.24 326.165 431.025C325.34 420.494 323.063 410.061 323.063 399.387C322.807 397.124 322.166 393.808 324.756 392.513C327.347 391.218 332.727 391.944 335.587 391.83C335.866 391.8 336.147 391.796 336.427 391.816V391.816Z" fill="#484848"/>
<path d="M340.967 508.676C340.431 509.593 339.955 510.544 339.544 511.523" stroke="#042B30" stroke-width="0.68" stroke-miterlimit="10" stroke-linecap="round"/>
<path d="M343.216 509.587C343.087 510.457 342.901 511.317 342.661 512.163" stroke="#042B30" stroke-width="0.68" stroke-miterlimit="10" stroke-linecap="round"/>
<path d="M363.582 516.376C365.164 517.204 366.823 517.876 368.535 518.383C370.085 518.602 371.587 519.083 372.975 519.806C373.682 520.294 374.188 521.022 374.399 521.855C374.494 522.194 374.506 522.551 374.434 522.895C374.362 523.239 374.208 523.561 373.986 523.834C373.485 524.313 372.858 524.639 372.178 524.773C365.546 526.609 358.487 524.559 351.613 524.986C349.602 525.249 347.569 525.292 345.55 525.115C345.309 525.088 345.078 524.999 344.881 524.858C344.664 524.589 344.553 524.25 344.568 523.905V523.022C344.193 519.671 344.518 516.279 345.521 513.06C345.735 512.505 346.076 511.893 346.66 511.793C347.008 511.775 347.355 511.843 347.67 511.992C350.303 512.889 352.637 510.925 355.043 512.163C357.818 513.686 360.721 514.995 363.582 516.376Z" fill="white"/>
<path d="M344.525 523.051V523.933C344.51 524.279 344.621 524.618 344.838 524.887C345.036 525.028 345.266 525.116 345.507 525.143C347.525 525.34 349.558 525.316 351.57 525.072C358.444 524.645 365.503 526.694 372.135 524.858C372.815 524.724 373.442 524.398 373.943 523.919C374.165 523.647 374.319 523.325 374.391 522.98C374.463 522.636 374.451 522.279 374.356 521.941C373.957 522.396 373.432 522.723 372.847 522.88C369.408 523.88 365.807 524.204 362.244 523.834C358.672 523.62 355.128 523.136 351.541 523.25C349.201 523.36 346.856 523.293 344.525 523.051Z" fill="#042B30"/>
<path d="M353.15 507.666C353.249 509.388 353.349 511.096 353.434 512.818C353.463 512.997 353.463 513.18 353.434 513.359C353.351 513.602 353.204 513.819 353.007 513.985C352.273 514.607 351.351 514.963 350.389 514.995C349.434 515.015 348.48 514.933 347.542 514.754C347.406 514.734 347.274 514.686 347.158 514.611C347.006 514.453 346.915 514.246 346.902 514.028C346.56 511.694 346.304 509.36 346.133 507.011L353.15 507.666Z" fill="#F9B377"/>
<path d="M349.236 384.258C351.684 410.986 353.268 437.762 353.99 464.585C354.388 478.917 354.886 493.362 354.673 507.652C354.689 507.827 354.643 508.003 354.545 508.15C354.393 508.283 354.204 508.368 354.004 508.392C350.924 509.12 347.743 509.317 344.596 508.975C344.241 500.721 343.87 492.466 343.543 484.197C342.618 460.643 335.445 437.914 329.709 414.943C329.067 411.839 328.064 408.82 326.721 405.948C325.468 403.486 323.732 401.223 322.579 398.733C320.074 393.31 320.544 387.247 321.042 381.426L349.236 384.258Z" fill="#484848"/>
<path d="M358.103 513.316C357.564 514.231 357.088 515.182 356.679 516.162" stroke="#042B30" stroke-width="0.68" stroke-miterlimit="10" stroke-linecap="round"/>
<path d="M360.38 514.141C360.278 515.013 360.126 515.878 359.924 516.732" stroke="#042B30" stroke-width="0.68" stroke-miterlimit="10" stroke-linecap="round"/>
<path d="M352.794 518.041C352.779 517.733 352.672 517.436 352.487 517.188C352.302 516.941 352.047 516.754 351.755 516.653C351.464 516.551 351.148 516.539 350.849 516.617C350.551 516.696 350.282 516.862 350.078 517.094C349.875 517.327 349.745 517.615 349.706 517.921C349.667 518.227 349.72 518.539 349.859 518.815C349.998 519.091 350.216 519.319 350.485 519.47C350.754 519.621 351.063 519.689 351.371 519.664C351.771 519.627 352.142 519.439 352.407 519.137C352.672 518.835 352.81 518.443 352.794 518.041Z" fill="white"/>
<path d="M337.523 513.416C337.511 513.094 337.404 512.783 337.215 512.522C337.026 512.262 336.764 512.063 336.461 511.952C336.159 511.841 335.831 511.822 335.518 511.898C335.205 511.974 334.922 512.142 334.705 512.379C334.487 512.617 334.345 512.914 334.297 513.232C334.249 513.55 334.297 513.876 334.434 514.167C334.571 514.458 334.792 514.702 335.069 514.867C335.345 515.032 335.664 515.112 335.986 515.095C336.411 515.073 336.811 514.884 337.098 514.57C337.386 514.256 337.538 513.841 337.523 513.416V513.416Z" fill="white"/>
<path d="M385.115 318.577C385.586 318.663 386.061 318.72 386.539 318.748C386.729 318.774 386.921 318.728 387.079 318.619C387.19 318.487 387.254 318.322 387.264 318.15C387.717 313.52 389.29 309.07 391.847 305.184C393.068 303.744 393.936 302.038 394.381 300.203C394.822 298.32 394.611 296.343 393.783 294.595C392.795 292.701 391.418 291.037 389.741 289.714C385.258 285.757 381.629 284.249 375.665 284.789C374.229 285.006 372.849 285.506 371.608 286.261C370.367 287.016 369.288 288.011 368.435 289.187C364.82 293.642 362.657 298.652 358.473 302.751C354.404 306.72 349.41 309.611 343.942 311.162C346.937 316.234 351.27 320.384 356.466 323.16C357.079 323.541 357.78 323.757 358.501 323.786C360.707 323.7 361.533 320.655 363.525 319.715C365.518 318.776 367.795 320.199 369.346 321.651C370.641 322.804 372.477 324.668 374.384 324.497C376.061 324.146 377.568 323.232 378.654 321.907C379.695 320.682 380.646 319.383 381.5 318.022C381.599 317.859 381.736 317.722 381.899 317.623C382.058 317.586 382.223 317.581 382.384 317.608C382.545 317.634 382.7 317.693 382.838 317.78C383.562 318.137 384.327 318.404 385.115 318.577V318.577Z" fill="#F9B377"/>
<path d="M377.494 318.156C377.465 318.746 377.598 319.332 377.879 319.851C378.16 320.37 378.578 320.802 379.087 321.101" stroke="#0B181B" stroke-width="0.51" stroke-linecap="round" stroke-linejoin="round"/>
<path d="M387.367 306.189C387.367 306.189 385.612 305.363 385.155 306.189C385.155 306.189 384.862 306.749 386.426 307.461C387.99 308.173 388.575 308.122 388.893 307.703C389.211 307.283 388.245 306.507 387.367 306.189Z" fill="#0B181B"/>
<path d="M384.519 310.182C384.472 310.302 384.45 310.431 384.452 310.56C384.455 310.689 384.483 310.816 384.535 310.934C384.587 311.052 384.662 311.159 384.755 311.248C384.848 311.337 384.958 311.407 385.078 311.454C385.199 311.5 385.327 311.523 385.456 311.52C385.585 311.517 385.712 311.489 385.83 311.437C385.948 311.385 386.055 311.311 386.144 311.217C386.233 311.124 386.303 311.014 386.35 310.894C386.435 310.651 386.425 310.384 386.321 310.148C386.217 309.912 386.028 309.724 385.791 309.623C385.548 309.531 385.278 309.538 385.04 309.643C384.803 309.747 384.615 309.941 384.519 310.182V310.182Z" fill="#0B181B"/>
<path opacity="0.2" d="M373.872 301.84C373.345 302.409 372.705 302.665 372.449 302.409C372.192 302.153 372.377 301.498 372.904 300.986C373.431 300.473 374.071 300.16 374.327 300.416C374.583 300.673 374.341 301.27 373.872 301.84Z" fill="#020202"/>
<path d="M331.744 318.62C329.249 322.512 327.367 326.765 326.165 331.229C324.884 336.922 325.411 343.455 324.927 349.261C324.133 361.436 322.092 373.497 318.836 385.255C318.618 385.791 318.559 386.379 318.665 386.948C318.95 387.945 320.088 388.372 321.127 388.613C330.031 390.764 339.252 391.276 348.339 390.122C349.151 390.095 349.935 389.822 350.588 389.339C350.943 388.896 351.202 388.384 351.346 387.834C351.491 387.285 351.519 386.712 351.428 386.151C351.201 380.525 351.612 374.891 352.652 369.357C353.221 366.511 353.89 363.664 354.601 360.818C355.242 358.299 356.878 354.983 356.878 352.407C358.401 347.041 360.01 341.704 361.433 336.31C362.629 331.815 362.629 327.085 361.433 322.59C361.224 321.27 360.77 320.001 360.095 318.847C359.588 318.132 359.001 317.478 358.344 316.897C354.146 312.87 347.713 309.07 341.522 310.678C337.565 311.76 333.865 315.261 331.744 318.62Z" fill="#237685"/>
<path d="M378.412 306.579C377.979 306.447 377.599 306.182 377.326 305.822C377.052 305.462 376.899 305.024 376.889 304.572C376.881 303.664 377.101 302.769 377.53 301.968C378.07 300.744 378.255 299.691 377.188 298.737C376.61 298.194 375.888 297.828 375.108 297.684C374.329 297.54 373.524 297.624 372.79 297.926C372.242 298.217 371.762 298.621 371.381 299.112C371.001 299.603 370.729 300.169 370.584 300.772C370.213 301.841 370.087 302.979 370.214 304.103C369.094 303.984 367.962 304.156 366.927 304.601C366.646 304.789 366.339 304.933 366.016 305.028C365.591 305.065 365.166 304.976 364.792 304.771L362.614 303.846C361.965 303.694 361.384 303.333 360.96 302.819C360.536 302.305 360.292 301.666 360.266 301L359.725 298.296C359.526 297.271 359.312 296.246 359.213 295.193C359.051 293.27 359.272 291.334 359.863 289.497C360.455 287.66 361.404 285.958 362.657 284.491C363.435 283.496 364.475 282.737 365.66 282.299C366.256 282.091 366.899 282.055 367.515 282.193C368.131 282.331 368.696 282.639 369.147 283.082C369.574 281.441 370.437 279.946 371.644 278.755C372.852 277.565 374.36 276.724 376.007 276.321C377.661 275.942 379.375 275.898 381.047 276.191C382.719 276.485 384.315 277.11 385.741 278.029C387.065 278.84 388.261 279.851 389.613 280.619C392.156 281.93 394.994 282.563 397.853 282.455C397.17 283.094 396.398 283.631 395.562 284.049C396.652 284.35 397.661 284.889 398.518 285.628C399.374 286.366 400.056 287.285 400.515 288.319C401.418 290.394 401.837 292.648 401.738 294.909C401.821 296.309 401.536 297.707 400.913 298.965C400.586 299.583 400.075 300.084 399.45 300.398C398.825 300.712 398.117 300.823 397.426 300.715C397.759 301.191 397.907 301.771 397.842 302.348C397.776 302.925 397.502 303.458 397.07 303.846C396.176 304.599 395.019 304.968 393.854 304.871C391.33 304.732 388.883 303.959 386.738 302.622C385.965 302.114 385.114 301.734 384.219 301.498C383.686 301.4 383.136 301.478 382.651 301.719C382.166 301.96 381.772 302.352 381.529 302.836C381.333 303.235 381.244 303.678 381.268 304.121C381.293 304.565 381.432 304.995 381.671 305.369C380.64 305.303 379.65 304.937 378.825 304.316C378.514 305.028 378.373 305.803 378.412 306.579Z" fill="#042B30"/>
<path d="M388.574 361.131C392.793 363.259 396.842 365.71 400.685 368.461C402.024 369.564 403.453 370.554 404.955 371.421C407.801 372.844 411.502 372.574 414.59 373.456C415.427 373.644 416.21 374.019 416.882 374.552C417.214 374.826 417.454 375.195 417.569 375.611C417.683 376.026 417.667 376.466 417.522 376.872L415.928 377.213C417.108 378.232 418.151 379.399 419.031 380.686C419.429 381.196 419.707 381.79 419.842 382.422C419.905 382.739 419.88 383.067 419.77 383.371C419.659 383.675 419.468 383.942 419.216 384.145C418.461 384.671 417.451 384.301 416.625 383.931C416.503 384.194 416.324 384.428 416.102 384.615C415.88 384.803 415.62 384.94 415.34 385.017C415.06 385.094 414.766 385.11 414.479 385.062C414.193 385.015 413.92 384.906 413.679 384.742C413.6 385.081 413.434 385.393 413.199 385.648C412.964 385.904 412.667 386.095 412.336 386.202C412.006 386.309 411.653 386.329 411.312 386.261C410.972 386.192 410.655 386.037 410.392 385.81C410.308 386.12 410.122 386.393 409.864 386.585C409.605 386.776 409.29 386.874 408.968 386.863C406.122 387.005 403.162 382.721 402.521 380.416C402.356 379.316 401.994 378.256 401.454 377.285C400.675 376.446 399.656 375.869 398.536 375.634C392.231 373.684 385.542 372.787 379.565 369.941C376.903 368.703 374.256 366.895 373.189 364.148C372.121 361.401 373.331 357.658 376.192 357.032C377.137 356.86 378.108 356.894 379.038 357.132C382.126 357.948 385.086 359.188 387.834 360.818L388.574 361.131Z" fill="#F9B377"/>
<path d="M368.307 328.112C368.207 327.899 368.108 327.685 367.994 327.472C365.532 322.619 359.995 316.57 354.246 316.086C348.994 315.688 346.717 319.075 345.066 323.587C344.319 325.29 344.072 327.171 344.354 329.009C344.725 330.248 345.307 331.413 346.076 332.453C347.272 334.303 348.477 336.154 349.691 338.004C351.039 340.184 352.532 342.272 354.16 344.252C356.158 346.416 358.288 348.455 360.536 350.357C361.547 351.282 366.542 354.015 366.742 354.983C366.852 356.108 366.77 357.244 366.5 358.342C366.237 359.458 366.421 360.632 367.012 361.615C367.171 361.836 367.376 362.019 367.613 362.152C367.851 362.285 368.114 362.364 368.385 362.385C368.657 362.405 368.929 362.366 369.183 362.27C369.438 362.174 369.668 362.023 369.858 361.828C369.658 362.354 369.592 362.922 369.668 363.48C369.743 364.038 369.956 364.568 370.289 365.022C370.621 365.476 371.062 365.84 371.571 366.08C372.08 366.32 372.641 366.429 373.203 366.397C376.491 365.899 377.615 360.818 380.931 360.562C381.756 360.491 382.682 360.747 383.35 360.263C384.019 359.779 384.062 358.498 383.777 357.573C382.525 353.303 379.081 350.172 376.576 346.515C372.79 340.907 371.253 334.175 368.307 328.112Z" fill="#237685"/>
<path d="M402.621 382.75C400.638 380.121 398.017 378.043 395.005 376.713C391.994 375.383 388.692 374.845 385.414 375.15" stroke="#042B30" stroke-width="1.5" stroke-miterlimit="10"/>
<path d="M388.574 399.956C395.112 400.694 401.693 400.984 408.271 400.825C422.617 400.768 436.954 400.45 451.281 399.871C454.022 399.62 456.784 399.778 459.479 400.341C459.55 401.764 457.671 402.234 456.262 402.262L423.258 402.831C420.288 402.685 417.319 403.125 414.519 404.127C410.107 406.019 407.303 410.602 406.279 415.299C405.254 419.995 405.738 424.891 406.279 429.673C400.687 430.366 395.037 430.447 389.428 429.915C389.061 421.369 389.309 412.808 390.168 404.297C377.672 404.117 365.176 404.06 352.68 404.127C353.258 402.939 353.909 401.789 354.63 400.682C355.536 399.697 356.611 398.883 357.804 398.277C360.565 396.854 364.08 396.854 367.154 396.854C374.341 397.082 381.372 399.017 388.574 399.956Z" fill="#52D6ED"/>
<path d="M459.052 512.263C456.785 509.8 453.677 508.277 450.341 507.993C447.296 507.894 444.108 509.16 441.304 507.993C439.955 507.315 438.732 506.41 437.689 505.318C432.082 500.294 424.282 497.006 416.981 498.87C416.744 498.9 416.526 499.017 416.369 499.198C416.316 499.321 416.289 499.455 416.289 499.589C416.289 499.724 416.316 499.857 416.369 499.98C416.711 501.404 417.095 502.699 417.451 504.065V505.019C418.874 510.455 417.622 516.333 419.657 521.571H464.929C465.428 518.81 460.888 514.056 459.052 512.263Z" fill="#FFE1F0"/>
<path d="M443.61 470.989C441.589 474.32 439.582 477.65 437.689 481.052C436.389 483.077 435.558 485.367 435.255 487.755C435.286 489.858 435.631 491.945 436.28 493.946C438.157 501.86 437.662 510.151 434.857 517.785C434.672 518.297 434.487 518.909 434.857 519.322C435.132 519.579 435.491 519.731 435.867 519.749C446.342 521.314 457.016 522.88 467.463 521.172C468.038 521.143 468.586 520.917 469.014 520.532C469.378 520.014 469.545 519.383 469.484 518.753C469.562 509.885 470.894 501.074 473.44 492.58C474.238 490.381 474.871 488.126 475.333 485.834C475.443 483.677 475.811 481.541 476.429 479.472C477.198 477.565 478.706 475.999 479.204 474.007L443.61 470.989Z" fill="#E1AA2D"/>
<path d="M429.591 494.487C428.406 494.119 427.134 494.149 425.967 494.572C424.801 494.994 423.804 495.786 423.129 496.827C422.454 497.867 422.138 499.1 422.228 500.337C422.318 501.575 422.809 502.749 423.628 503.681C425.407 505.631 428.381 506.157 430.118 508.164C431.003 509.392 431.712 510.738 432.224 512.163C433.258 514.259 434.717 516.118 436.508 517.62C438.299 519.122 440.383 520.234 442.628 520.888C447.167 522.16 452.019 521.677 456.219 519.535C456.86 519.222 457.543 518.781 457.643 518.112C457.685 517.605 457.543 517.1 457.244 516.689C456.257 515.073 454.705 513.881 452.889 513.344C454.148 512.34 455.18 511.08 455.916 509.647C456.652 508.214 457.076 506.641 457.159 505.033C457.316 501.774 456.216 498.58 454.085 496.109C452.665 494.393 450.702 493.213 448.52 492.765C446.3 492.366 444.663 493.206 442.471 492.466C440.33 491.676 438.023 491.447 435.768 491.801C433.514 492.155 431.387 493.079 429.591 494.487V494.487Z" fill="#FC80BE"/>
<path d="M411.758 475.53L419.799 521.443H471.861L480.371 476.483L411.758 475.53Z" stroke="#042B30" stroke-miterlimit="10" stroke-linecap="round"/>
<path d="M413.879 488.552L478.009 489.264" stroke="#042B30" stroke-miterlimit="10"/>
<path d="M416.725 504.876L474.223 505.83" stroke="#042B30" stroke-miterlimit="10"/>
<path d="M419.088 517.187L472.33 516.718" stroke="#042B30" stroke-miterlimit="10"/>
<path d="M423.585 475.53L428.082 521.201" stroke="#042B30" stroke-miterlimit="10"/>
<path d="M438.016 475.771V521.201" stroke="#042B30" stroke-miterlimit="10"/>
<path d="M451.509 475.771L450.555 521.685" stroke="#042B30" stroke-miterlimit="10"/>
<path d="M466.893 476.013L461.442 521.201" stroke="#042B30" stroke-miterlimit="10"/>
<path d="M482.663 476.796H409.922C409.19 476.796 408.487 476.505 407.97 475.988C407.452 475.47 407.161 474.767 407.161 474.035V474.035C407.161 473.303 407.452 472.601 407.97 472.083C408.487 471.565 409.19 471.274 409.922 471.274H482.649C483.381 471.274 484.083 471.565 484.601 472.083C485.119 472.601 485.41 473.303 485.41 474.035V474.035C485.41 474.765 485.121 475.465 484.606 475.983C484.091 476.5 483.393 476.793 482.663 476.796V476.796Z" fill="#042B30"/>
<path d="M446.186 471.288H456.39C460.018 476.006 461.863 481.853 461.599 487.798C461.287 493.73 460.073 499.58 457.999 505.147C457.102 507.822 456.191 510.968 457.785 513.302C458.499 514.22 459.486 514.887 460.604 515.207C461.722 515.527 462.913 515.483 464.005 515.081C465.086 514.655 466.073 514.02 466.908 513.211C467.744 512.403 468.411 511.437 468.872 510.37C469.766 508.225 470.346 505.963 470.594 503.652C472.161 492.968 472.557 482.144 471.775 471.374H480.073C479.786 470.731 479.338 470.172 478.772 469.753C478.206 469.334 477.541 469.069 476.842 468.983C475.409 468.946 473.977 469.07 472.572 469.353C463.635 470.534 454.512 466.506 445.673 468.228C444.66 468.356 443.734 468.865 443.083 469.652C442.799 470.007 442.386 470.335 442.614 470.819C442.841 471.303 443.482 471.345 444.037 471.331L446.186 471.288Z" fill="#FFC134"/>
<path d="M445.374 354.926C444.345 354.424 443.177 354.284 442.058 354.527C441.313 354.643 440.601 354.914 439.968 355.323C439.336 355.733 438.797 356.272 438.386 356.904C437.982 357.552 437.784 358.307 437.82 359.07C437.855 359.833 438.122 360.567 438.586 361.174C437.822 360.703 436.909 360.537 436.028 360.708C435.147 360.879 434.363 361.376 433.832 362.099C433.343 362.851 433.098 363.736 433.131 364.633C433.165 365.53 433.474 366.394 434.017 367.109C434.582 367.806 435.306 368.357 436.128 368.716C436.951 369.075 437.847 369.231 438.742 369.172C437.534 371.794 436.146 374.329 434.586 376.758C437.712 375.98 440.628 374.522 443.126 372.488C443.539 373.103 444.138 373.571 444.834 373.825C445.531 374.078 446.29 374.103 447.002 373.898C447.714 373.692 448.343 373.265 448.797 372.68C449.252 372.094 449.508 371.379 449.53 370.638C450.84 371.848 452.946 371.35 454.483 370.482C455.13 370.188 455.701 369.749 456.15 369.198C456.599 368.648 456.915 368.001 457.073 367.308C457.094 366.877 457.017 366.447 456.847 366.05C456.677 365.653 456.419 365.3 456.093 365.018C455.767 364.735 455.38 364.531 454.963 364.42C454.546 364.308 454.11 364.294 453.686 364.376C454.43 364.236 455.122 363.896 455.687 363.391C456.252 362.887 456.668 362.238 456.891 361.514C457.113 360.79 457.134 360.019 456.95 359.285C456.767 358.55 456.386 357.879 455.849 357.345C454.598 356.263 452.992 355.68 451.338 355.709C449.488 355.609 448.619 356.506 447.068 357.061C446.769 356.174 446.17 355.419 445.374 354.926V354.926Z" fill="#D3D3D3"/>
<path d="M442.656 381.327C442.83 381.339 443.005 381.315 443.169 381.255C443.401 381.126 443.597 380.94 443.738 380.715C443.964 380.389 444.263 380.122 444.612 379.934C444.961 379.746 445.349 379.643 445.745 379.633C445.935 379.654 446.119 379.713 446.286 379.807C446.452 379.9 446.599 380.027 446.716 380.178C446.833 380.329 446.918 380.503 446.966 380.688C447.014 380.873 447.025 381.066 446.997 381.255C447.43 380.961 447.92 380.762 448.435 380.672C448.95 380.581 449.479 380.6 449.986 380.729C450.682 380.866 451.31 381.238 451.765 381.782C451.992 382.055 452.139 382.386 452.189 382.738C452.239 383.09 452.191 383.449 452.049 383.775C451.897 384.093 451.633 384.343 451.307 384.477C450.981 384.611 450.616 384.619 450.285 384.5C450.684 385.067 450.862 385.761 450.786 386.45C450.71 387.139 450.385 387.777 449.872 388.243C449.601 388.446 449.286 388.584 448.953 388.645C448.62 388.706 448.277 388.688 447.952 388.595C447.626 388.501 447.327 388.333 447.078 388.104C446.828 387.875 446.635 387.592 446.513 387.276C446.306 387.9 445.888 388.433 445.332 388.784C445.049 388.955 444.72 389.034 444.391 389.008C444.062 388.983 443.749 388.855 443.496 388.642C443.252 388.388 443.08 388.074 442.998 387.731C442.627 386.465 442.754 385.106 443.354 383.931C441.803 383.099 440.201 382.367 438.557 381.739C439.383 380.914 441.503 381.327 442.656 381.327Z" fill="#D3D3D3"/>
</svg>
