<svg width="832" height="748" viewBox="0 0 832 748" fill="none" xmlns="http://www.w3.org/2000/svg">
<path fill-rule="evenodd" clip-rule="evenodd" d="M95.6484 269.281C131.354 224.896 204.173 237.725 253.08 208.519C290.755 186.022 305.928 133.54 347.326 118.989C388.844 104.395 433.949 121.883 477.254 129.723C520.02 137.464 563.408 143.282 601.095 164.928C640.339 187.469 670.444 221.498 698.653 256.888C730.196 296.46 780.94 334.585 776.514 384.996C771.881 437.762 705.583 461.682 676.77 506.129C653.857 541.473 641.739 532.53 617 566.62C576.5 570 641 566.62 590 566.62C528.5 566.62 486 566.62 432 566.62C380 566.62 278.5 566.62 278.5 566.62C278.5 566.62 252.318 566.62 198.5 566.62C146.262 566.62 84.9294 479.829 76.2612 428.316C67.287 374.983 61.7489 311.42 95.6484 269.281Z" fill="#FFE1F0"/>
<g style="mix-blend-mode:multiply">
<g style="mix-blend-mode:multiply">
<path d="M286.116 171.603C286.116 171.603 286.193 177.536 286.324 187.905C286.455 198.274 286.564 213.1 286.728 230.888C286.892 248.676 287.023 269.413 287.067 291.648C287.111 313.882 287.154 337.592 287.209 361.301C287.264 385.011 287.111 408.731 287.067 430.966C287.023 453.2 286.816 473.938 286.728 491.726C286.641 509.513 286.466 524.362 286.335 534.709C286.204 545.056 286.116 551.01 286.116 551.01C286.116 551.01 286.04 545.078 285.898 534.709C285.756 524.34 285.668 509.513 285.504 491.726C285.341 473.938 285.209 453.189 285.166 430.966C285.122 408.742 285.078 385.076 285.024 361.301C284.969 337.526 285.122 313.882 285.166 291.648C285.209 269.413 285.417 248.665 285.504 230.888C285.592 213.111 285.81 198.285 285.909 187.905C286.007 177.525 286.116 171.603 286.116 171.603Z" fill="#BABABA"/>
</g>
<g style="mix-blend-mode:multiply">
<path d="M333.546 171.603C333.546 171.603 333.623 177.536 333.754 187.905C333.885 198.274 333.983 213.1 334.158 230.888C334.333 248.676 334.442 269.413 334.486 291.648C334.53 313.882 334.584 337.592 334.639 361.301C334.693 385.011 334.53 408.731 334.486 430.966C334.442 453.2 334.246 473.938 334.158 491.726C334.071 509.513 333.852 524.329 333.754 534.709C333.655 545.088 333.546 551.01 333.546 551.01C333.546 551.01 333.47 545.078 333.328 534.709C333.186 524.34 333.098 509.513 332.923 491.726C332.749 473.938 332.628 453.189 332.596 430.966C332.563 408.742 332.497 385.076 332.454 361.301C332.41 337.526 332.552 313.882 332.596 291.648C332.639 269.413 332.836 248.665 332.934 230.888C333.033 213.111 333.229 198.285 333.328 187.905C333.426 177.525 333.546 171.603 333.546 171.603Z" fill="#BABABA"/>
</g>
<g style="mix-blend-mode:multiply">
<path d="M380.965 171.603C380.965 171.603 381.042 177.536 381.184 187.905C381.326 198.274 381.413 213.1 381.577 230.888C381.741 248.676 381.872 269.413 381.916 291.648C381.96 313.882 382.014 337.592 382.058 361.301C382.102 385.011 381.96 408.731 381.916 430.966C381.872 453.2 381.675 473.938 381.577 491.726C381.479 509.513 381.282 524.329 381.184 534.709C381.085 545.088 380.965 551.01 380.965 551.01C380.965 551.01 380.889 545.078 380.758 534.709C380.627 524.34 380.517 509.513 380.353 491.726C380.19 473.938 380.058 453.189 380.015 430.966C379.971 408.742 379.927 385.076 379.873 361.301C379.818 337.526 379.971 313.882 380.026 291.648C380.08 269.413 380.266 248.665 380.353 230.888C380.441 213.111 380.659 198.285 380.758 187.905C380.856 177.525 380.965 171.603 380.965 171.603Z" fill="#BABABA"/>
</g>
<g style="mix-blend-mode:multiply">
<path d="M428.395 171.603C428.395 171.603 428.472 177.536 428.603 187.905C428.734 198.274 428.843 213.1 429.007 230.888C429.171 248.676 429.291 269.413 429.335 291.648C429.379 313.882 429.433 337.592 429.488 361.301C429.543 385.011 429.39 408.731 429.346 430.966C429.302 453.2 429.095 473.938 429.007 491.726C428.92 509.513 428.701 524.329 428.603 534.709C428.505 545.088 428.395 551.01 428.395 551.01C428.395 551.01 428.319 545.078 428.177 534.709C428.035 524.34 427.947 509.513 427.773 491.726C427.598 473.938 427.478 453.189 427.445 430.966C427.412 408.742 427.346 385.076 427.303 361.301C427.259 337.526 427.401 313.882 427.445 291.648C427.488 269.413 427.685 248.665 427.783 230.888C427.882 213.111 428.089 198.285 428.177 187.905C428.264 177.525 428.395 171.603 428.395 171.603Z" fill="#BABABA"/>
</g>
<g style="mix-blend-mode:multiply">
<path d="M475.814 171.603C475.814 171.603 475.891 177.536 476.033 187.905C476.175 198.274 476.262 213.1 476.426 230.888C476.59 248.676 476.721 269.413 476.765 291.648C476.809 313.882 476.863 337.592 476.907 361.301C476.951 385.011 476.809 408.731 476.765 430.966C476.721 453.2 476.525 473.938 476.437 491.726C476.35 509.513 476.131 524.329 476.033 534.709C475.935 545.088 475.814 551.01 475.814 551.01C475.814 551.01 475.738 545.078 475.607 534.709C475.476 524.34 475.366 509.513 475.202 491.726C475.039 473.938 474.907 453.189 474.875 430.966C474.842 408.742 474.776 385.076 474.722 361.301C474.667 337.526 474.82 313.882 474.875 291.648C474.929 269.413 475.115 248.665 475.202 230.888C475.29 213.111 475.508 198.285 475.607 187.905C475.705 177.525 475.814 171.603 475.814 171.603Z" fill="#BABABA"/>
</g>
<g style="mix-blend-mode:multiply">
<path d="M523.244 171.603C523.244 171.603 523.321 177.536 523.452 187.905C523.583 198.274 523.692 213.1 523.856 230.888C524.02 248.676 524.151 269.413 524.195 291.648C524.239 313.882 524.282 337.592 524.337 361.301C524.391 385.011 524.239 408.731 524.195 430.955C524.151 453.179 523.944 473.938 523.856 491.726C523.769 509.513 523.561 524.362 523.452 534.698C523.343 545.034 523.244 550.999 523.244 550.999C523.244 550.999 523.168 545.078 523.026 534.698C522.884 524.318 522.796 509.502 522.632 491.726C522.469 473.949 522.337 453.189 522.294 430.955C522.25 408.72 522.206 385.066 522.152 361.301C522.097 337.537 522.25 313.882 522.294 291.648C522.337 269.413 522.545 248.665 522.632 230.888C522.72 213.111 522.938 198.285 523.037 187.905C523.135 177.525 523.244 171.603 523.244 171.603Z" fill="#BABABA"/>
</g>
<g style="mix-blend-mode:multiply">
<path d="M570.663 171.603C570.663 171.603 570.74 177.536 570.882 187.905C571.024 198.274 571.111 213.1 571.275 230.888C571.439 248.676 571.57 269.413 571.614 291.648C571.658 313.882 571.712 337.592 571.756 361.301C571.8 385.011 571.658 408.731 571.614 430.955C571.57 453.179 571.373 473.938 571.286 491.726C571.199 509.513 570.98 524.329 570.882 534.698C570.783 545.067 570.663 550.999 570.663 550.999C570.663 550.999 570.587 545.078 570.456 534.698C570.325 524.318 570.215 509.502 570.051 491.726C569.888 473.949 569.756 453.189 569.724 430.955C569.691 408.72 569.625 385.066 569.582 361.301C569.538 337.537 569.68 313.882 569.724 291.648C569.767 269.413 569.964 248.665 570.051 230.888C570.139 213.111 570.357 198.285 570.456 187.905C570.554 177.525 570.663 171.603 570.663 171.603Z" fill="#BABABA"/>
</g>
<g style="mix-blend-mode:multiply">
<path d="M618.093 171.603C618.093 171.603 618.17 177.536 618.301 187.905C618.432 198.274 618.541 213.1 618.705 230.888C618.869 248.676 619 269.413 619.044 291.648C619.088 313.882 619.131 337.592 619.186 361.301C619.24 385.011 619.088 408.731 619.044 430.955C619 453.179 618.793 473.938 618.705 491.726C618.618 509.513 618.399 524.329 618.301 534.698C618.203 545.067 618.093 550.999 618.093 550.999C618.093 550.999 618.017 545.078 617.886 534.698C617.755 524.318 617.645 509.502 617.481 491.726C617.318 473.949 617.186 453.189 617.143 430.955C617.099 408.72 617.055 385.066 617.001 361.301C616.946 337.537 617.099 313.882 617.143 291.648C617.186 269.413 617.394 248.665 617.481 230.888C617.569 213.111 617.787 198.285 617.886 187.905C617.984 177.525 618.093 171.603 618.093 171.603Z" fill="#BABABA"/>
</g>
<g style="mix-blend-mode:multiply">
<path d="M641.803 195.313L625.501 195.488L582.562 195.925C564.774 196.023 544.026 196.22 521.791 196.263L452.138 196.405L382.484 196.263C360.25 196.263 339.501 196.023 321.713 195.936L278.708 195.488L262.429 195.313L278.73 195.105L321.702 194.701C339.49 194.614 360.239 194.406 382.473 194.373L452.127 194.22L521.78 194.373C544.015 194.373 564.763 194.614 582.551 194.701L625.523 195.105L641.803 195.313Z" fill="#BABABA"/>
</g>
<g style="mix-blend-mode:multiply">
<path d="M641.803 242.743L625.501 242.95L582.562 243.355C564.774 243.442 544.026 243.65 521.791 243.693L452.138 243.835L382.484 243.693C360.25 243.693 339.501 243.442 321.713 243.355L278.708 242.95L262.429 242.743L278.73 242.524L321.702 242.131C339.49 242.033 360.239 241.825 382.473 241.792L452.127 241.65L521.78 241.792C544.015 241.792 564.763 242.043 582.551 242.131L625.523 242.535L641.803 242.743Z" fill="#BABABA"/>
</g>
<g style="mix-blend-mode:multiply">
<path d="M641.803 290.173L625.501 290.38L582.529 290.785C564.741 290.872 543.993 291.069 521.758 291.112L452.105 291.254L382.451 291.112C360.217 291.112 339.468 290.872 321.681 290.785L278.708 290.38L262.429 290.173L278.73 289.954L321.702 289.55C339.49 289.463 360.239 289.255 382.473 289.222L452.127 289.08L521.78 289.222C544.015 289.222 564.763 289.463 582.551 289.55L625.523 289.954L641.803 290.173Z" fill="#BABABA"/>
</g>
<g style="mix-blend-mode:multiply">
<path d="M641.803 337.592L625.501 337.81L582.529 338.204C564.741 338.291 543.993 338.499 521.758 338.542L452.105 338.684L382.451 338.542C360.217 338.542 339.468 338.302 321.681 338.204L278.708 337.81L262.429 337.592L278.73 337.384L321.702 336.98C339.49 336.893 360.239 336.685 382.473 336.641L452.127 336.499L521.78 336.652C544.015 336.652 564.763 336.893 582.551 336.98L625.523 337.384L641.803 337.592Z" fill="#BABABA"/>
</g>
<g style="mix-blend-mode:multiply">
<path d="M641.803 385.022L625.501 385.229L582.562 385.601C564.774 385.688 544.026 385.885 521.791 385.929L452.138 386.082L382.484 385.929C360.25 385.929 339.501 385.688 321.713 385.601L278.741 385.197L262.429 385.022L278.73 384.803L321.702 384.399C339.49 384.312 360.239 384.104 382.473 384.071L452.127 383.929L521.78 384.071C544.015 384.071 564.763 384.312 582.551 384.41L625.523 384.803L641.803 385.022Z" fill="#BABABA"/>
</g>
<g style="mix-blend-mode:multiply">
<path d="M641.803 432.441L625.501 432.659L582.529 433.053C564.741 433.151 543.993 433.348 521.758 433.391L452.105 433.533L382.451 433.391C360.217 433.391 339.468 433.151 321.691 433.064L278.708 432.659L262.429 432.441L278.73 432.233L321.713 431.829C339.49 431.742 360.239 431.534 382.473 431.501L452.127 431.348L521.78 431.501C544.015 431.501 564.763 431.742 582.551 431.829L625.523 432.233L641.803 432.441Z" fill="#BABABA"/>
</g>
<g style="mix-blend-mode:multiply">
<path d="M641.803 479.871L625.501 480.079L582.529 480.483C564.741 480.57 543.993 480.778 521.758 480.821L452.105 480.964L382.451 480.821C360.217 480.821 339.468 480.57 321.691 480.483L278.708 480.079L262.429 479.871L278.73 479.652L321.713 479.259C339.49 479.161 360.239 478.953 382.473 478.92L452.127 478.778L521.78 478.92C544.015 478.92 564.763 479.172 582.551 479.259L625.523 479.663L641.803 479.871Z" fill="#BABABA"/>
</g>
<g style="mix-blend-mode:multiply">
<path d="M641.803 527.301L625.501 527.508L582.529 527.913C564.741 528 543.993 528.197 521.758 528.24L452.105 528.383L382.451 528.24C360.217 528.24 339.468 528 321.691 527.913L278.708 527.508L262.429 527.301L278.73 527.082L321.713 526.678C339.49 526.591 360.239 526.383 382.473 526.35L452.127 526.208L521.78 526.35C544.015 526.35 564.763 526.591 582.551 526.689L625.523 527.082L641.803 527.301Z" fill="#BABABA"/>
</g>
</g>
<path d="M584.247 376.625H472.95V527.481H584.247V376.625Z" fill="white"/>
<path d="M611.632 376.625H584.247V527.481H611.632V376.625Z" fill="#D3D3D3"/>
<path d="M584.247 408.787H472.95" stroke="#D3D3D3" stroke-miterlimit="10"/>
<path d="M501.969 509.897H480.44V520.469H501.969V509.897Z" stroke="#C3C7CC" stroke-width="0.98" stroke-miterlimit="10"/>
<path d="M528.845 393.669C528.845 394.705 528.538 395.718 527.962 396.58C527.387 397.442 526.568 398.113 525.611 398.51C524.653 398.906 523.6 399.01 522.583 398.808C521.567 398.606 520.633 398.107 519.901 397.374C519.168 396.641 518.669 395.708 518.467 394.691C518.264 393.675 518.368 392.621 518.765 391.664C519.161 390.706 519.833 389.888 520.695 389.312C521.556 388.736 522.569 388.429 523.606 388.429C524.995 388.429 526.328 388.981 527.311 389.964C528.293 390.946 528.845 392.279 528.845 393.669Z" fill="#D3D3D3"/>
<path d="M546.075 393.669C546.075 394.705 545.767 395.718 545.192 396.58C544.616 397.442 543.797 398.113 542.84 398.51C541.883 398.906 540.829 399.01 539.813 398.808C538.796 398.606 537.863 398.107 537.13 397.374C536.397 396.641 535.898 395.708 535.696 394.691C535.494 393.675 535.597 392.621 535.994 391.664C536.391 390.706 537.062 389.888 537.924 389.312C538.786 388.736 539.799 388.429 540.835 388.429C542.225 388.429 543.557 388.981 544.54 389.964C545.523 390.946 546.075 392.279 546.075 393.669V393.669Z" fill="#D3D3D3"/>
<path d="M576.511 387.489H554.135V399.849H576.511V387.489Z" stroke="#C3C7CC" stroke-width="0.98" stroke-miterlimit="10"/>
<path d="M509.982 385.07H477.358V402.253H509.982V385.07Z" fill="#50545C"/>
<path d="M527.15 501.129C548.939 501.129 566.602 483.466 566.602 461.677C566.602 439.888 548.939 422.225 527.15 422.225C505.361 422.225 487.698 439.888 487.698 461.677C487.698 483.466 505.361 501.129 527.15 501.129Z" fill="#93979D"/>
<path d="M538.158 488.611C553.033 482.532 560.163 465.545 554.083 450.671C548.004 435.796 531.017 428.666 516.143 434.745C501.268 440.825 494.138 457.811 500.217 472.686C506.297 487.561 523.283 494.691 538.158 488.611Z" fill="#50545C"/>
<path d="M447.83 501.129C469.619 501.129 487.282 483.466 487.282 461.677C487.282 439.888 469.619 422.225 447.83 422.225C426.042 422.225 408.379 439.888 408.379 461.677C408.379 483.466 426.042 501.129 447.83 501.129Z" fill="#C3C7CC"/>
<path d="M476.119 468.407C479.84 452.775 470.184 437.086 454.552 433.364C438.92 429.643 423.231 439.299 419.509 454.931C415.788 470.563 425.444 486.253 441.076 489.974C456.709 493.695 472.398 484.039 476.119 468.407Z" fill="white"/>
<path d="M588.917 345.464H561.747V376.625H588.917V345.464Z" fill="#E1AA2D"/>
<path d="M580.996 345.464H553.826V376.625H580.996V345.464Z" fill="#FFC134"/>
<path d="M556.415 359.041V370.83L578.407 363.71V351.135L556.415 359.041Z" fill="white"/>
<path d="M536.073 368.149H485.664C483.519 368.149 481.781 369.887 481.781 372.032V372.741C481.781 374.886 483.519 376.625 485.664 376.625H536.073C538.218 376.625 539.957 374.886 539.957 372.741V372.032C539.957 369.887 538.218 368.149 536.073 368.149Z" fill="#FC80BE"/>
<path d="M530.294 361.707H491.952C490.318 361.707 488.993 363.032 488.993 364.666V365.19C488.993 366.824 490.318 368.149 491.952 368.149H530.294C531.928 368.149 533.253 366.824 533.253 365.19V364.666C533.253 363.032 531.928 361.707 530.294 361.707Z" fill="white"/>
<path d="M533.499 355.265H495.157C493.523 355.265 492.198 356.59 492.198 358.224V358.748C492.198 360.382 493.523 361.707 495.157 361.707H533.499C535.133 361.707 536.458 360.382 536.458 358.748V358.224C536.458 356.59 535.133 355.265 533.499 355.265Z" fill="white"/>
<path d="M383.937 358.301C390.482 358.301 395.788 352.995 395.788 346.45C395.788 339.905 390.482 334.599 383.937 334.599C377.392 334.599 372.086 339.905 372.086 346.45C372.086 352.995 377.392 358.301 383.937 358.301Z" fill="#1D0A03"/>
<path d="M394.94 356.282C394.94 356.282 392.336 349.948 387.79 351.659C383.244 353.37 383.059 358.825 385.447 360.32C387.836 361.815 394.139 356.914 394.139 356.914L394.94 356.282Z" fill="#FF5BAD"/>
<path d="M397.899 391.989L387.05 406.876L374.367 397.321L390.687 374.96L397.899 391.989Z" fill="#B86658"/>
<path d="M392.213 399.787C392.398 399.525 390.194 388.738 390.194 388.738L396.281 394.208L392.213 399.787Z" fill="#9B493C"/>
<path d="M413.896 360.258C413.896 360.258 421.385 364.065 418.689 374.128C418.689 374.128 416.654 381.402 413.634 391.866C413.274 393.17 412.626 394.376 411.736 395.395C410.846 396.414 409.738 397.219 408.494 397.751C407.25 398.283 405.902 398.527 404.551 398.466C403.2 398.405 401.88 398.04 400.689 397.398C397.241 395.476 394.258 392.819 391.951 389.616L388.73 383.945C381.81 368.657 397.606 352.63 412.802 359.765L413.896 360.258Z" fill="#B86658"/>
<path d="M414.497 382.897L417.009 388.029C417.533 388.861 416.901 390.14 416.207 390.001L412.493 389.246L414.497 382.897Z" fill="#B86658"/>
<path d="M414.512 375.792C414.512 375.792 417.271 376.193 417.101 377.441C417.101 377.441 416.963 378.273 414.558 377.873C412.154 377.472 411.569 377.133 411.476 376.332C411.384 375.53 413.233 375.484 414.512 375.792Z" fill="#1D0A03"/>
<path d="M412.077 382.28C411.985 382.416 411.923 382.569 411.894 382.73C411.865 382.891 411.87 383.056 411.908 383.216C411.947 383.375 412.019 383.524 412.119 383.653C412.219 383.783 412.345 383.89 412.489 383.968C412.633 384.046 412.791 384.093 412.955 384.106C413.118 384.119 413.282 384.097 413.436 384.043C413.591 383.988 413.732 383.902 413.851 383.789C413.97 383.677 414.064 383.541 414.127 383.39C414.254 383.121 414.277 382.815 414.192 382.531C414.106 382.246 413.918 382.003 413.665 381.849C413.396 381.698 413.079 381.658 412.782 381.739C412.485 381.82 412.232 382.014 412.077 382.28V382.28Z" fill="#1D0A03"/>
<path d="M412.139 391.696L410.752 391.172" stroke="#1D0A03" stroke-width="0.61" stroke-linecap="round" stroke-linejoin="round"/>
<path d="M397.761 374.775C397.761 374.775 400.673 349.147 418.442 365.529C418.442 365.529 414.512 349.794 393.646 351.998C391.227 352.367 388.917 353.255 386.874 354.601C384.831 355.947 383.104 357.719 381.81 359.796C378.559 366.114 380.47 372.988 383.105 385.347L392.644 379.445C394.167 377.7 395.884 376.133 397.761 374.775V374.775Z" fill="#1D0A03"/>
<path d="M393.291 365.591L394.324 376.856C423.605 376.856 415.421 360.582 415.421 360.582C415.421 360.582 395.834 347.359 393.291 365.591Z" fill="#1D0A03"/>
<path d="M405.204 374.56L399.702 378.967L397.052 370.953L405.204 374.56Z" fill="#1D0A03"/>
<path d="M411.153 360.69C411.153 360.69 419.814 365.082 419.151 371.847C419.151 371.847 428.397 364.712 415.314 359.518C406.468 356.205 411.153 360.69 411.153 360.69Z" fill="#1D0A03"/>
<path d="M389.839 374.005C389.435 375.02 389.34 376.133 389.567 377.202C389.795 378.271 390.333 379.249 391.116 380.012C391.898 380.776 392.889 381.29 393.964 381.491C395.038 381.691 396.148 381.569 397.153 381.14C398.158 380.71 399.014 379.992 399.611 379.077C400.209 378.162 400.522 377.09 400.511 375.997C400.501 374.904 400.166 373.839 399.55 372.936C398.935 372.033 398.065 371.332 397.052 370.923C395.687 370.375 394.16 370.393 392.808 370.971C391.455 371.549 390.388 372.64 389.839 374.005Z" fill="#B86658"/>
<path d="M396.821 378.042C396.821 378.042 398.362 374.313 394.54 373.419" stroke="#1D0A03" stroke-width="0.61" stroke-linecap="round" stroke-linejoin="round"/>
<path d="M392.351 519.129L401.906 493.177L420.091 490.434L407.269 519.329L394.971 521.949L392.351 519.129Z" fill="#B86658"/>
<path d="M395.68 510.098C395.68 510.098 398.608 514.721 410.906 511.315L429.769 521.625C430.31 521.963 430.726 522.467 430.956 523.062C431.186 523.657 431.216 524.311 431.042 524.924C430.868 525.538 430.5 526.078 429.992 526.464C429.485 526.851 428.866 527.061 428.228 527.065L397.406 526.973C396.418 526.97 395.447 526.722 394.578 526.251C393.71 525.78 392.973 525.101 392.432 524.274C391.891 523.448 391.564 522.5 391.48 521.516C391.396 520.532 391.558 519.542 391.951 518.636L395.68 510.098Z" fill="white"/>
<path d="M351.728 500.774L368.804 477.72L384.199 483.591L362.886 508.449L352.591 504.365L351.728 500.774Z" fill="#B86658"/>
<path d="M372.425 518.019L365.644 505.429C354.965 507.925 353.855 497.862 353.855 497.862C353.855 497.862 343.638 503.209 342.559 505.737C342.053 506.939 342.041 508.293 342.526 509.504C343.01 510.716 343.952 511.687 345.148 512.209L359.634 524.368C362.238 526.106 365.275 527.083 368.403 527.189L377.233 527.481C377.916 527.507 378.581 527.265 379.087 526.807C379.594 526.35 379.902 525.712 379.946 525.031C379.977 524.59 379.896 524.148 379.71 523.746C379.524 523.345 379.239 522.997 378.882 522.735L372.425 518.019Z" fill="white"/>
<path d="M367.956 454.064L414.189 429.854C417.537 428.091 421.345 427.398 425.1 427.867C428.854 428.337 432.375 429.948 435.185 432.481C437.996 435.014 439.962 438.349 440.818 442.035C441.673 445.721 441.378 449.581 439.971 453.093L421.201 499.85L394.709 498.108L407.331 467.04L391.581 482.574C391.581 482.574 370.006 502.192 351.513 495.18C333.02 488.168 330.816 467.888 330.816 467.888L367.956 454.064Z" fill="#237685"/>
<path d="M407.331 467.04L410.012 459.674" stroke="#13454E" stroke-width="0.75" stroke-miterlimit="10"/>
<path d="M389.701 400.897L378.79 396.951C376.121 395.968 373.213 395.839 370.468 396.582C362.578 398.708 346.581 405.582 336.24 427.141C320.83 459.288 325.715 476.795 325.715 476.795C325.715 476.795 363.287 474.268 372.98 451.336C372.98 451.336 370.761 443.631 374.521 440.302C374.521 440.302 385.216 438.576 390.718 423.766L391.334 403.27C391.345 402.753 391.193 402.246 390.9 401.82C390.607 401.394 390.187 401.071 389.701 400.897V400.897Z" fill="#FC80BE"/>
<path d="M463.072 447.514C463.072 447.514 459.235 424.984 477.866 428.343C496.498 431.703 492.753 440.888 502.092 452.631C502.092 452.631 522.65 470.492 493.138 476.81C463.627 483.129 478.344 455.497 463.072 447.514Z" fill="#52D6ED"/>
<path d="M463.056 458.78C461.182 458.641 459.39 457.949 457.909 456.793C456.427 455.636 455.321 454.066 454.731 452.282C454.141 450.497 454.093 448.577 454.594 446.765C455.094 444.953 456.121 443.331 457.543 442.102C458.966 440.873 460.721 440.093 462.586 439.861C464.451 439.63 466.344 439.956 468.024 440.799C469.704 441.642 471.096 442.964 472.025 444.598C472.954 446.232 473.378 448.105 473.243 449.98C473.155 451.228 472.822 452.446 472.261 453.565C471.701 454.683 470.926 455.68 469.979 456.498C469.032 457.315 467.933 457.938 466.745 458.33C465.557 458.721 464.304 458.874 463.056 458.78V458.78Z" fill="#B86658"/>
<path d="M470.793 442.891C470.793 442.891 472.334 438.854 467.418 438.114C462.502 437.374 455.69 439.131 454.257 448.609L470.793 442.891Z" fill="#B86658"/>
<path d="M458.433 440.117L407.577 437.312C401.582 437.128 399.286 441.258 399.733 447.252C399.923 449.925 401.165 452.413 403.188 454.17C405.211 455.927 407.848 456.809 410.521 456.622L456.414 455.081L458.433 440.117Z" fill="#FC80BE"/>
<path d="M391.057 402.16L415.915 438.653C420.137 443.631 421.879 450.889 416.531 454.634C414.231 456.254 411.401 456.937 408.616 456.545C405.831 456.153 403.299 454.715 401.536 452.523L375.338 422.595C371.408 417.71 369.79 405.643 374.875 402.037C379.437 398.693 389.069 400.126 391.057 402.16Z" fill="#FC80BE"/>
<path d="M384.939 433.599L372.98 419.005" stroke="#FF5BAD" stroke-width="0.75" stroke-miterlimit="10"/>
<path d="M459.476 280.629L319.885 280.921L319.902 289.012L459.493 288.72L459.476 280.629Z" fill="#D3D3D3"/>
<path d="M383.768 280.646V249.486L400.026 236.124L403.139 240.794V280.646H383.768Z" fill="#52D6ED"/>
<path d="M398.1 237.696L394.756 233.073C394.669 232.956 394.56 232.859 394.435 232.785C394.31 232.711 394.171 232.664 394.028 232.645C393.884 232.627 393.738 232.637 393.598 232.676C393.458 232.715 393.328 232.782 393.214 232.873L389.593 235.816C389.479 235.905 389.384 236.015 389.313 236.141C389.242 236.267 389.197 236.405 389.18 236.548C389.163 236.692 389.174 236.837 389.213 236.976C389.252 237.114 389.318 237.244 389.408 237.357L392.968 241.981L398.1 237.696Z" fill="#237685"/>
<path d="M360.728 240.732H354.055C353.501 240.917 347.383 244.986 345.163 249.979C342.944 254.972 340.54 264.419 342.944 280.631H364.211C364.211 280.631 369.435 264.249 360.728 240.732ZM352.468 254.725C352.468 254.725 351.744 256.39 351.204 265.374C351.204 265.374 350.942 268.78 348.477 267.979C346.011 267.177 345.61 262.184 346.674 257.576C347.737 252.968 349.756 251.412 351.143 251.412C352.53 251.412 352.776 253.492 352.468 254.725Z" fill="#FFC134"/>
<path d="M355.381 234.183H359.403C359.755 234.183 360.092 234.322 360.34 234.571C360.589 234.819 360.728 235.157 360.728 235.508V240.671H354.055V235.57C354.047 235.391 354.075 235.212 354.138 235.044C354.201 234.876 354.297 234.722 354.421 234.592C354.545 234.463 354.694 234.36 354.859 234.289C355.024 234.219 355.201 234.183 355.381 234.183V234.183Z" fill="#52D6ED"/>
<path d="M424.313 240.717L418.796 280.646H437.104L432.527 240.717H424.313Z" fill="#237685"/>
<path d="M427.057 235.97H430C430.258 235.97 430.505 236.073 430.687 236.255C430.869 236.437 430.971 236.684 430.971 236.941V240.717H426.086V236.941C426.086 236.684 426.188 236.437 426.37 236.255C426.552 236.073 426.799 235.97 427.057 235.97V235.97Z" fill="#52D6ED"/>
<path d="M430.69 522.176C429.137 520.001 423.588 518.352 423.588 518.352C423.588 518.352 423.412 521.057 423.042 522.723C422.628 524.585 419.764 527.093 419.764 527.093H426.866C427.958 527.093 429.326 527.354 430.143 526.547C430.822 525.876 431.236 525.316 431.236 524.362C431.236 523.408 431.47 523.269 430.69 522.176Z" fill="#FFC134"/>
<path d="M395.18 522.723C393.445 519.826 392.995 517.26 392.449 517.26C391.902 517.26 391.356 521.084 391.356 521.084C391.356 521.084 391.45 523.718 392.449 524.908C393.248 525.861 394.015 526.112 395.18 526.547C396.199 526.928 397.912 527.093 398.458 527.093C399.004 527.093 396.505 524.934 395.18 522.723Z" fill="#FFC134"/>
<path d="M379.337 522.723C377.784 520.547 373.328 518.899 373.328 518.899C373.328 518.899 372.059 521.603 371.689 523.269C371.275 525.132 367.865 527.093 367.865 527.093C367.865 527.093 373.38 527.64 375.513 527.64C376.606 527.64 377.973 527.9 378.791 527.093C379.47 526.423 379.884 525.862 379.884 524.908C379.884 523.954 380.117 523.815 379.337 522.723Z" fill="#FFC134"/>
<path d="M345.793 507.998C346.572 504.713 348.589 501.798 348.198 501.417C347.807 501.036 344.92 503.056 344.92 503.056C344.92 503.056 342.305 504.785 342.189 506.334C342.096 507.574 342.189 509.612 343.123 510.737C343.818 511.574 345.622 512.508 346.013 512.889C346.404 513.271 345.198 510.507 345.793 507.998Z" fill="#FFC134"/>
</svg>
